<svg xmlns="http://www.w3.org/2000/svg" xmlns:xlink="http://www.w3.org/1999/xlink" width="60.629" height="68.708" viewBox="0 0 60.629 68.708">
  <defs>
    <clipPath id="clip-path">
      <rect id="Rectángulo_66780" data-name="Rectángulo 66780" width="60.629" height="68.708" fill="none"/>
    </clipPath>
  </defs>
  <g id="Grupo_873025" data-name="Grupo 873025" transform="translate(0 0)">
    <g id="Grupo_873024" data-name="Grupo 873024" transform="translate(0 0)" clip-path="url(#clip-path)">
      <path id="Trazado_199631" data-name="Trazado 199631" d="M45.459,20.087,29.313,10.415a4.91,4.91,0,0,0-1.369-.57,5.685,5.685,0,0,0-4.041-.81L8.537,11.146C5.581,9.691,1.5,10.234,1.592,14.124A125.025,125.025,0,0,0,5.133,41.09a3.623,3.623,0,0,0,.211,1.874q.608,1.558,1.273,3.084c.5,6.272,3.51,9.493,8.236,15.987.25.344.749.392,1.129.563q2.457,3.418,5.259,6.626c.992,1.132,3.087,2.672,4.515,2.121A30.266,30.266,0,0,0,43.381,54c3.475-8.9,2.941-20.27,4.211-28.673a5.2,5.2,0,0,0-2.133-5.241" transform="translate(-0.777 -4.38)" fill="#29abe2"/>
      <path id="Trazado_199632" data-name="Trazado 199632" d="M61.262,14.309a2.3,2.3,0,0,0-1.674-2.3c-2.518-.594-3.929-2.252-5.9-3.783a25.416,25.416,0,0,0-5.4-2.726c-2.012-.927-4.076-2.206-6.123-3.052C40.4,1.713,38.4.553,36.469,1.457a3.3,3.3,0,0,0-.734.487,2.2,2.2,0,0,0-1.171-.237c-8.249.436-11.857.872-20.1,1.308C11.488,3.172,4.044,7.35,7.033,7.192c3.187-.168,6.962-.238,10.785-.3a2.553,2.553,0,0,1,1.09-.436c1.969-.281,4.181-.354,6.033-.618a4.262,4.262,0,0,1,3.4.821c.777-.029,1.535-.061,2.258-.1a2.376,2.376,0,0,0,.711.625l15.146,8.877a19.482,19.482,0,0,0,4.462,2.16,3.079,3.079,0,0,0-.3,1.068q-.787,8.38-1.011,16.794c-.421.869-.8,1.762-1.169,2.633-1.951,4.609-2.171,9.335-3.456,14.171-.332,1.25-2,2.188-1.1,2.618-4.081,3.136-7.906,8.436-12.868,9.668-2.9.719-1.206,2.875,1.7,2.154,7.394-1.835,13.3-7.049,19.244-11.534.787-.594,1.978-1.439,1.895-2.235,3.293-3.408,4.658-8.266,5.543-13.018C60.747,33.3,61.358,26.6,62.026,19.271a1.986,1.986,0,0,0-.069-.728l.1-.046c2.159-1.007,1.092-3.759-.8-4.189" transform="translate(-3.097 -0.55)" fill="#49bfe8"/>
      <path id="Trazado_199633" data-name="Trazado 199633" d="M45.5,55.28l-1.083-2.891a10.193,10.193,0,0,0-.36-1.5,4.757,4.757,0,0,0-3.641-3.381,2.189,2.189,0,0,0-2.25-.628,4.283,4.283,0,0,0-2.135,1.473,4.429,4.429,0,0,0-.906,2.459,1.825,1.825,0,0,0,.142.794,5.478,5.478,0,0,0,.2,2.425,9.521,9.521,0,0,0,1.592,4.628c-.33,1.979.228,4.317.4,6.3.261,2.951,4.9,2.979,4.64,0a37.881,37.881,0,0,1-.407-4.6c.039-1.048-.483-.025.2-.921.319-.419.871-.654,1.213-1.09.028-.035.048-.073.073-.108a2.016,2.016,0,0,0,.7-.1A2.347,2.347,0,0,0,45.5,55.28" transform="translate(-17.158 -22.854)" fill="gray"/>
      <path id="Trazado_199634" data-name="Trazado 199634" d="M42.447,48.7c2.686,2.571,4.466,5.907,1.812,9.167-1.859,2.284-1.231,5.914-1.322,8.733-.058,1.792,2.727,1.79,2.784,0,.083-2.564-.257-5.313,1.2-7.5a7.839,7.839,0,0,0,1.486-3.841c.3-3.393-1.642-6.283-3.991-8.531-1.295-1.239-3.266.727-1.969,1.969" transform="translate(-20.528 -22.638)" fill="#666"/>
      <path id="Trazado_199635" data-name="Trazado 199635" d="M37.585,53.324c-.139,2.436-.019,5.014,2.187,6.511.744.5,1.441-.7.7-1.2-1.737-1.178-1.6-3.457-1.5-5.309.051-.9-1.342-.892-1.392,0" transform="translate(-18.342 -25.722)" fill="#b2b2b2"/>
      <path id="Trazado_199636" data-name="Trazado 199636" d="M40.55,45.39a.684.684,0,0,0-.21-.072.718.718,0,0,0-.221-.029c-4.374-.555-6.29,3.972-5.465,7.776a8.561,8.561,0,0,0,1.66,3.614c.666.792.73.528.8,1.513.1,1.524-.127,3.068-.011,4.593.123,1.609.936,3.941,2.576,4.623,1.439.6,2.514-.329,2.991-1.654a14,14,0,0,0,.358-4.581,9.532,9.532,0,0,1,.015-2.415c.188-.592.063,0,.128-.064.356-.365.807-.59,1.155-.988,3.369-3.856.8-10.766-3.772-12.316M42,57.726a.69.69,0,0,0-.345.6c-.011,1.674.04,3.359-.033,5.032a4.607,4.607,0,0,1-.152,1.533c-.837,2-2.225.549-2.7-.856a7.689,7.689,0,0,1-.28-2.616c.009-1.4.365-3.337-.177-4.633-.28-.669-1.149-1.244-1.532-1.948a7.767,7.767,0,0,1-.944-3.751c.025-2.388,1.422-4.872,4.142-4.428,4.2,1.253,6.6,8.782,2.025,11.065" transform="translate(-16.838 -22.102)"/>
      <path id="Trazado_199637" data-name="Trazado 199637" d="M70.254,6.813q9.352,4.027,18.348,8.8c1.582.839,2.991-1.563,1.405-2.4q-8.994-4.771-18.348-8.8c-1.628-.7-3.048,1.7-1.405,2.4" transform="translate(-33.963 -2.092)" fill="#79dcf7"/>
      <path id="Trazado_199638" data-name="Trazado 199638" d="M87.055,98.415l5.791-2.8a2.342,2.342,0,0,0,.832-3.175A2.369,2.369,0,0,0,90.5,91.6l-5.791,2.805a2.342,2.342,0,0,0-.832,3.175,2.369,2.369,0,0,0,3.174.832" transform="translate(-40.83 -44.61)" fill="#79dcf7"/>
      <path id="Trazado_199639" data-name="Trazado 199639" d="M5.7,18.194a174.025,174.025,0,0,1,19.94-1.432,1.393,1.393,0,0,0,0-2.785A174.141,174.141,0,0,0,5.7,15.409c-1.752.228-1.775,3.015,0,2.785" transform="translate(-2.14 -6.828)" fill="#79dcf7"/>
      <path id="Trazado_199640" data-name="Trazado 199640" d="M41.7,17.188A232.21,232.21,0,0,1,63.2,28.019a1.393,1.393,0,0,0,1.405-2.4,232.018,232.018,0,0,0-21.5-10.831c-1.624-.716-3.043,1.683-1.405,2.4" transform="translate(-20.017 -7.158)" fill="#79dcf7"/>
      <path id="Trazado_199641" data-name="Trazado 199641" d="M73.655,39.732q-.848,9.382-1.7,18.764c-.505,5.584-.974,12.27-6.281,15.507-1.527.932-.13,3.341,1.406,2.4,5.147-3.14,6.718-8.919,7.342-14.571.812-7.35,1.348-14.741,2.013-22.1.161-1.784-2.624-1.773-2.785,0" transform="translate(-31.762 -18.758)" fill="#79dcf7"/>
      <path id="Trazado_199642" data-name="Trazado 199642" d="M58.729,116.417a1.393,1.393,0,0,0,0-2.785,1.393,1.393,0,0,0,0,2.785" transform="translate(-28.033 -55.511)" fill="#79dcf7"/>
      <path id="Trazado_199643" data-name="Trazado 199643" d="M78.886,100.319a119.529,119.529,0,0,1-11.846,8.417c-2.527,1.579-.2,5.6,2.342,4.007A129.191,129.191,0,0,0,82.167,103.6c2.323-1.878-.978-5.144-3.281-3.281" transform="translate(-32.218 -48.736)" fill="#29abe2"/>
      <path id="Trazado_199644" data-name="Trazado 199644" d="M104.477,32.563q-.548,9.317-1.783,18.569c-.394,2.951,4.25,2.922,4.64,0q1.236-9.251,1.784-18.569c.175-2.984-4.466-2.973-4.641,0" transform="translate(-50.156 -14.816)" fill="#29abe2"/>
      <path id="Trazado_199645" data-name="Trazado 199645" d="M4.918,21.668C5.736,31.339,6.6,41.4,8.948,50.839c2.159,8.683,9.353,15.178,15.661,21.093,2.177,2.041,5.465-1.233,3.281-3.281C21.94,63.071,15.1,57.066,13.237,48.82A200.042,200.042,0,0,1,9.558,21.668c-.25-2.954-4.893-2.98-4.641,0" transform="translate(-2.397 -9.498)" fill="#2691bf"/>
      <path id="Trazado_199646" data-name="Trazado 199646" d="M19.529,8.291l2.72-1.509c1.567-.87.164-3.275-1.406-2.4L18.124,5.887c-1.567.87-.165,3.275,1.405,2.4" transform="translate(-8.519 -2.047)" fill="#29abe2"/>
      <path id="Trazado_199647" data-name="Trazado 199647" d="M60.406,12.814a.632.632,0,0,0-.3-.327L36.925.16A.606.606,0,0,0,36.455,0L11.177,1.489a.674.674,0,0,0-.559.331Q5.814,3.885.889,5.642a.683.683,0,0,0-.438.451A.654.654,0,0,0,0,6.73q.6,9.538,1.711,19.036a119.442,119.442,0,0,0,2.7,16.488C7.157,52.684,16.394,60.264,23.3,67.99a.651.651,0,0,0,.407.2.639.639,0,0,0,.831.488Q30.4,66.9,36.124,64.757a.713.713,0,0,0,.325-.24c7.623-4.708,15.583-8.589,18.586-17.678,3.508-10.618,4.823-22.384,5.593-33.495a.583.583,0,0,0-.221-.53m-12.9,3.957-9.048-4.884L28.67,6.6C27.8,6.133,26.9,5.533,25.986,5.035q5.15-1.443,10.233-3.109a.67.67,0,0,0,.409-.347L58.55,13.238,47.51,16.771M11.492,2.95a.717.717,0,0,0,.161-.1L32.612,1.62q-4.063,1.272-8.168,2.4a.658.658,0,0,0-.366.24,8.783,8.783,0,0,0-2.276.123c-5.718.592-11.471.956-17.211,1.363q3.479-1.327,6.9-2.8M5.56,41.093C2.933,30.156,2.144,18.58,1.434,7.371,7.718,6.891,14,6.447,20.285,5.923c1.068-.089,2.654-.551,3.671-.283,1.593.419,3.38,1.823,4.827,2.6l8.976,4.845c2.5,1.352,5.487,2.5,7.768,4.193,1.457,1.082,1.07,2.032.913,3.788q-.2,2.211-.429,4.418c-.624,5.986-1.348,11.977-2.452,17.9-1.028,5.514-2.112,10.5-6.52,14.321C32.988,61.218,28.4,63.741,23.917,66.6,16.995,58.948,8.06,51.505,5.56,41.093m48.573,3.934A21.405,21.405,0,0,1,47.09,56.051c-3.476,2.875-7.6,4.945-11.417,7.308a.716.716,0,0,0-.168.146q-4.425,1.648-8.924,3.075c6.992-4.261,14.7-8.429,17.012-16.79,2.82-10.194,3.67-21.22,4.494-31.743l11.062-3.54a152.045,152.045,0,0,1-5.017,30.519" transform="translate(0 0)"/>
    </g>
  </g>
</svg>
