<svg xmlns="http://www.w3.org/2000/svg" xmlns:xlink="http://www.w3.org/1999/xlink" width="66.196" height="62.337" viewBox="0 0 66.196 62.337">
  <defs>
    <clipPath id="clip-path">
      <rect id="Rectángulo_66781" data-name="Rectángulo 66781" width="66.196" height="62.337" fill="none"/>
    </clipPath>
  </defs>
  <g id="Grupo_873027" data-name="Grupo 873027" transform="translate(0 0)">
    <g id="Grupo_873026" data-name="Grupo 873026" transform="translate(0 0)" clip-path="url(#clip-path)">
      <path id="Trazado_199648" data-name="Trazado 199648" d="M1.913,33.185c.172-3.544.084-7.534,1.363-10.891,1.4-3.667,4.376-5.725,8.086-6.66,3.847-.969,7.75-1.755,11.62-2.63,3.958-.895,7.914-1.8,11.875-2.684a12.542,12.542,0,0,1,4.673-.246c1.221-2.721,5.016-4.488,7.9-1.822.3.276.575.566.841.86a4.462,4.462,0,0,1,3.056,4.339q.019,1.114.039,2.227a15.011,15.011,0,0,1-.023,4.509c.037,8.833.122,17.674-.042,26.5-.1,5.337-2.926,9.323-8.293,10.394-3.121.623-6.311,1.03-9.5,1.405a6.528,6.528,0,0,1-.658.288,88.314,88.314,0,0,1-22.536,5.465c-4.526.394-7.24-2.57-7.736-6.817-.468-4.011-.68-8.071-.79-12.106s-.068-8.092.128-12.132m24.419-2.979c.146-.049.115-.051,0,0" transform="translate(13.76 -3.262)" fill="#29abe2"/>
      <path id="Trazado_199649" data-name="Trazado 199649" d="M17.862,46.647q-.029-4.5-.013-9,.031-8.523.226-17.045c.085-3.7.328-8.461,4.271-10.17a2.754,2.754,0,0,1,.507-.164,2.541,2.541,0,0,1,2.229-1.749,112.141,112.141,0,0,0,23.975-5.65,36.505,36.505,0,0,1,17.264-1.59C68.709,2.4,71.06,3.6,73.532,4.506A2.7,2.7,0,0,1,73.515,5.6a3.359,3.359,0,0,0-1.6.087C68.584,6.721,65.21,7,62.055,8.627c-.109.056-.208.117-.307.178C52.1,9.936,42.786,14.518,33.177,14.6a2.414,2.414,0,0,1,1.328,3.49c-1.635,2.388-1.084,6.837-1.258,9.645-.207,3.352-.445,6.7-.586,10.059a56.62,56.62,0,0,0,.967,14.841,30.032,30.032,0,0,0,.436,4.759,2.973,2.973,0,0,0,.92,1.652,2.868,2.868,0,0,1-3.457,1.031l-7.758-3.436c-1.82-.806-4.2-1.478-5.257-3.341-1.071-1.89-.636-4.581-.649-6.649" transform="translate(-16.804 -0.41)" fill="#49bfe8"/>
      <path id="Trazado_199650" data-name="Trazado 199650" d="M87.2,36.134c.492,10.81.752,21.606.63,32.428a1.443,1.443,0,0,1-2.883,0c.122-10.822-.139-21.618-.63-32.428-.084-1.855,2.8-1.851,2.883,0" transform="translate(-66.316 -16.343)" fill="#79dcf7"/>
      <path id="Trazado_199651" data-name="Trazado 199651" d="M45.6,14.13a334.963,334.963,0,0,0-34.332,9.16c-1.769.574-2.527-2.209-.766-2.78a334.927,334.927,0,0,1,34.332-9.16c1.81-.381,2.584,2.4.766,2.78" transform="translate(14.526 -5.322)" fill="#79dcf7"/>
      <path id="Trazado_199652" data-name="Trazado 199652" d="M60.817,48.1q-7.55-5.868-14.557-12.377c-1.363-1.265.68-3.3,2.039-2.039Q55.3,40.2,62.855,46.066c1.463,1.137-.591,3.164-2.039,2.039" transform="translate(-21.424 -15.659)" fill="#79dcf7"/>
      <path id="Trazado_199653" data-name="Trazado 199653" d="M106.782,31.746l-9.114-2.7c-1.775-.525-1.02-3.309.766-2.78l9.114,2.7c1.775.525,1.02,3.309-.766,2.78" transform="translate(-93.557 -12.325)" fill="#79dcf7"/>
      <path id="Trazado_199654" data-name="Trazado 199654" d="M85.845,106.013a1.443,1.443,0,0,1,0-2.883,1.443,1.443,0,0,1,0,2.883" transform="translate(-65.77 -48.509)" fill="#79dcf7"/>
      <path id="Trazado_199655" data-name="Trazado 199655" d="M117.3,35.764a238.475,238.475,0,0,1-.35,29.768c-.228,3.065-5.035,3.09-4.8,0a238.476,238.476,0,0,0,.35-29.768c-.156-3.091,4.649-3.082,4.805,0" transform="translate(-110.806 -15.733)" fill="#29abe2"/>
      <path id="Trazado_199656" data-name="Trazado 199656" d="M9.776,24.874c-.588,10.64-.5,21.3-.607,31.949-.032,3.09-4.837,3.1-4.805,0,.109-10.652.019-21.309.607-31.949.17-3.075,4.976-3.1,4.805,0" transform="translate(54.105 -10.612)" fill="#2691bf"/>
      <path id="Trazado_199657" data-name="Trazado 199657" d="M42.644,90.617Q26.358,94.9,9.9,98.474C6.886,99.13,5.6,94.5,8.623,93.84q16.455-3.578,32.743-7.857c2.993-.786,4.27,3.848,1.277,4.634" transform="translate(18.194 -40.402)" fill="#2691bf"/>
      <path id="Trazado_199658" data-name="Trazado 199658" d="M35.9,9.568l-3.15-1.127a1.478,1.478,0,0,1-1.007-1.773,1.454,1.454,0,0,1,1.773-1.007l3.15,1.127a1.478,1.478,0,0,1,1.007,1.773A1.454,1.454,0,0,1,35.9,9.568" transform="translate(11.68 -2.632)" fill="#29abe2"/>
      <path id="Trazado_199659" data-name="Trazado 199659" d="M0,49.314Q0,34.281,0,19.249A.7.7,0,0,1,.1,18.89c0-.011,0-.02,0-.032C-.037,14.062,2.076,9.582,6.9,8.119l.013,0a.757.757,0,0,1,.163-.055C17.81,5.729,28.481,3.076,39.126.36a.769.769,0,0,1,.218-.022A.64.64,0,0,1,39.666.2C46.694-.814,53.027,2.26,59.686,3.884a6.333,6.333,0,0,1,1.855.409c.2.038.392.076.588.11a.579.579,0,0,1,.5.455A6.391,6.391,0,0,1,64.176,6.32c1.69,2.213,1.785,4.9,1.8,7.547q.068,10.561.136,21.123c.04,6.224.986,13.6-4.75,17.824-1.694,1.248-3.653,1.57-5.644,2.03l-9.531,2.2L25.65,61.786c-2.054.474-4.063.978-6.079-.046-.141-.072-.274-.153-.407-.233Q12.194,59.514,5.389,57a7.159,7.159,0,0,1-5.3-7.334A.7.7,0,0,1,0,49.314M40.049,1.592a.787.787,0,0,1-.235,0,.7.7,0,0,1-.305.162C28.864,4.466,18.193,7.119,7.457,9.452c-.018,0-.034,0-.052.006a.843.843,0,0,1-.124.051,7.989,7.989,0,0,0-1.774.785q6.764,1.78,13.373,4.073a.758.758,0,0,1,.084.039,9.328,9.328,0,0,1,4.151-2.466c10.966-2.532,21.916-5.154,32.9-7.6C50.778,2.741,45.586.792,40.049,1.592m1.322,32.766L62.97,7.125a4.172,4.172,0,0,0-1.575-1.4c-.693-.13-1.382-.284-2.07-.455a7.756,7.756,0,0,0-1.621.163C46.248,7.753,34.887,10.7,23.5,13.331a8.306,8.306,0,0,0-3.517,1.913l21.39,19.114M24.743,60.517l17.622-4.068c5.114-1.181,10.306-2.187,15.374-3.55,7.117-1.914,6.989-9.412,6.951-15.33q-.066-10.159-.131-20.319c-.016-2.535.109-6.136-.869-8.729L41.968,35.911a.576.576,0,0,1-.841.118.752.752,0,0,1-.178-.118L19.031,16.325c-2.8,3.826-2.211,10.052-2.181,14.645l.129,19.975c.013,2.036-.167,4.272.537,6.208a5.184,5.184,0,0,0,2.708,3.158c.476.134.949.275,1.425.405a8.546,8.546,0,0,0,3.094-.2m-19.558-5.1a.748.748,0,0,1,.183.042c.136.051.274.1.41.148.1.026.195.056.3.076a.687.687,0,0,1,.3.137q5.278,1.936,10.658,3.558a11.431,11.431,0,0,1-1.474-5.849c-.091-6.571-.085-13.143-.127-19.715-.038-5.858-1.221-13.228,2.513-18.223l.016-.02Q11.1,13.211,4.068,11.4a10.021,10.021,0,0,0-2.535,7.456.686.686,0,0,1-.092.372c0,.006,0,.012,0,.019q0,14.8,0,29.607a.588.588,0,0,1,.116.462,5.752,5.752,0,0,0,3.627,6.1" transform="translate(0 0)"/>
      <path id="Trazado_199660" data-name="Trazado 199660" d="M35.094,52.793,36.216,49.8a10.553,10.553,0,0,1,.372-1.551,4.926,4.926,0,0,1,3.77-3.5,2.267,2.267,0,0,1,2.33-.65A4.435,4.435,0,0,1,44.9,45.622a4.586,4.586,0,0,1,.939,2.546,1.889,1.889,0,0,1-.147.822,5.672,5.672,0,0,1-.2,2.511,9.859,9.859,0,0,1-1.648,4.792c.342,2.049-.236,4.471-.418,6.52-.271,3.056-5.078,3.085-4.8,0a39.226,39.226,0,0,0,.422-4.768c-.041-1.085.5-.026-.205-.953-.33-.434-.9-.677-1.256-1.128-.029-.037-.049-.076-.075-.113a2.087,2.087,0,0,1-.728-.1,2.43,2.43,0,0,1-1.678-2.955" transform="translate(1.831 -20.693)" fill="gray"/>
      <path id="Trazado_199661" data-name="Trazado 199661" d="M48.076,46c-2.781,2.662-4.624,6.116-1.876,9.493,1.925,2.365,1.275,6.124,1.369,9.042.06,1.856-2.823,1.854-2.883,0-.086-2.655.266-5.5-1.241-7.763A8.119,8.119,0,0,1,41.9,52.794c-.306-3.514,1.7-6.506,4.132-8.833,1.34-1.283,3.382.753,2.039,2.039" transform="translate(-4.497 -20.485)" fill="#666"/>
      <path id="Trazado_199662" data-name="Trazado 199662" d="M40.714,50.558c.144,2.522.02,5.192-2.264,6.742-.77.522-1.492-.726-.728-1.245,1.8-1.22,1.66-3.58,1.55-5.5-.053-.927,1.389-.924,1.442,0" transform="translate(5.635 -23.454)" fill="#b2b2b2"/>
      <path id="Trazado_199663" data-name="Trazado 199663" d="M39.819,42.605a.709.709,0,0,1,.217-.074.743.743,0,0,1,.229-.03c4.529-.575,6.513,4.113,5.659,8.052A8.865,8.865,0,0,1,44.205,54.3c-.69.82-.756.547-.824,1.567-.1,1.578.132,3.177.011,4.756-.128,1.666-.969,4.081-2.668,4.787-1.49.62-2.6-.341-3.1-1.713a14.5,14.5,0,0,1-.371-4.743,9.871,9.871,0,0,0-.016-2.5c-.194-.613-.065,0-.132-.067-.369-.378-.836-.611-1.2-1.023-3.488-3.992-.832-11.148,3.906-12.753m-1.5,12.774A.715.715,0,0,1,38.68,56c.011,1.733-.042,3.479.033,5.211a4.771,4.771,0,0,0,.158,1.587c.866,2.071,2.3.569,2.8-.886a7.961,7.961,0,0,0,.29-2.709c-.009-1.452-.379-3.455.184-4.8.29-.693,1.19-1.289,1.586-2.017a8.043,8.043,0,0,0,.977-3.884c-.026-2.472-1.473-5.045-4.289-4.585-4.347,1.3-6.831,9.093-2.1,11.458" transform="translate(1.902 -19.968)"/>
    </g>
  </g>
</svg>
