<svg xmlns="http://www.w3.org/2000/svg" xmlns:xlink="http://www.w3.org/1999/xlink" width="1029.89" height="207.156" viewBox="0 0 1029.89 207.156">
  <defs>
    <clipPath id="clip-path">
      <rect id="Rectángulo_66277" data-name="Rectángulo 66277" width="1029.89" height="172.941" fill="none"/>
    </clipPath>
    <clipPath id="clip-path-2">
      <rect id="Rectángulo_66262" data-name="Rectángulo 66262" width="1029.889" height="172.941" fill="none"/>
    </clipPath>
    <clipPath id="clip-path-3">
      <rect id="Rectángulo_66251" data-name="Rectángulo 66251" width="103.751" height="103.751" fill="none"/>
    </clipPath>
    <clipPath id="clip-path-5">
      <rect id="Rectángulo_66253" data-name="Rectángulo 66253" width="99.96" height="99.96" fill="none"/>
    </clipPath>
    <clipPath id="clip-path-7">
      <rect id="Rectángulo_66255" data-name="Rectángulo 66255" width="99.958" height="99.96" fill="none"/>
    </clipPath>
    <clipPath id="clip-path-9">
      <rect id="Rectángulo_66257" data-name="Rectángulo 66257" width="99.961" height="99.96" fill="none"/>
    </clipPath>
    <clipPath id="clip-path-11">
      <rect id="Rectángulo_66259" data-name="Rectángulo 66259" width="99.957" height="99.96" fill="none"/>
    </clipPath>
    <clipPath id="clip-path-15">
      <path id="Trazado_194928" data-name="Trazado 194928" d="M84.428,136.854a51.907,51.907,0,1,0,51.907-51.907,51.907,51.907,0,0,0-51.907,51.907" transform="translate(-84.428 -84.947)" fill="none"/>
    </clipPath>
    <linearGradient id="linear-gradient" x1="-0.096" y1="1.093" x2="-0.093" y2="1.093" gradientUnits="objectBoundingBox">
      <stop offset="0" stop-color="#fff"/>
      <stop offset="0.466" stop-color="#fcfcfc"/>
      <stop offset="0.722" stop-color="#f4f5f5"/>
      <stop offset="0.928" stop-color="#e6eaea"/>
      <stop offset="1" stop-color="#e0e4e4"/>
    </linearGradient>
    <clipPath id="clip-path-16">
      <path id="Trazado_194929" data-name="Trazado 194929" d="M502.186,137.122a51.907,51.907,0,1,0,51.907-51.908,51.907,51.907,0,0,0-51.907,51.908" transform="translate(-502.186 -85.214)" fill="none"/>
    </clipPath>
    <linearGradient id="linear-gradient-2" x1="-1.285" y1="1.096" x2="-1.282" y2="1.096" xlink:href="#linear-gradient"/>
    <clipPath id="clip-path-17">
      <path id="Trazado_194930" data-name="Trazado 194930" d="M919.87,137.122a51.907,51.907,0,1,0,51.907-51.908,51.907,51.907,0,0,0-51.907,51.908" transform="translate(-919.87 -85.214)" fill="none"/>
    </clipPath>
    <linearGradient id="linear-gradient-3" x1="-2.506" y1="1.102" x2="-2.503" y2="1.102" xlink:href="#linear-gradient"/>
    <clipPath id="clip-path-18">
      <path id="Trazado_194931" data-name="Trazado 194931" d="M1337.556,137.122a51.907,51.907,0,1,0,51.907-51.908,51.906,51.906,0,0,0-51.907,51.908" transform="translate(-1337.556 -85.214)" fill="none"/>
    </clipPath>
    <linearGradient id="linear-gradient-4" x1="-3.837" y1="1.121" x2="-3.834" y2="1.121" xlink:href="#linear-gradient"/>
    <clipPath id="clip-path-19">
      <path id="Trazado_194932" data-name="Trazado 194932" d="M1755.24,137.122a51.907,51.907,0,1,0,51.907-51.908,51.907,51.907,0,0,0-51.907,51.908" transform="translate(-1755.24 -85.214)" fill="none"/>
    </clipPath>
    <linearGradient id="linear-gradient-5" x1="-4.98" y1="1.111" x2="-4.977" y2="1.111" xlink:href="#linear-gradient"/>
    <clipPath id="clip-path-20">
      <path id="Trazado_194933" data-name="Trazado 194933" d="M2172.925,137.122a51.907,51.907,0,1,0,51.907-51.908,51.907,51.907,0,0,0-51.907,51.908" transform="translate(-2172.925 -85.214)" fill="none"/>
    </clipPath>
    <linearGradient id="linear-gradient-6" x1="-6.173" y1="1.109" x2="-6.17" y2="1.109" xlink:href="#linear-gradient"/>
    <clipPath id="clip-path-22">
      <path id="Trazado_194940" data-name="Trazado 194940" d="M93.428,142.161a48.214,48.214,0,1,0,48.214-48.214,48.214,48.214,0,0,0-48.214,48.214" transform="translate(-93.428 -93.947)" fill="#fff"/>
    </clipPath>
    <clipPath id="clip-path-23">
      <path id="Trazado_194941" data-name="Trazado 194941" d="M511.186,142.428A48.214,48.214,0,1,0,559.4,94.214a48.214,48.214,0,0,0-48.214,48.214" transform="translate(-511.186 -94.214)" fill="#fff"/>
    </clipPath>
    <clipPath id="clip-path-24">
      <path id="Trazado_194942" data-name="Trazado 194942" d="M928.87,142.428a48.214,48.214,0,1,0,48.214-48.214,48.214,48.214,0,0,0-48.214,48.214" transform="translate(-928.87 -94.214)" fill="#fff"/>
    </clipPath>
    <clipPath id="clip-path-25">
      <path id="Trazado_194943" data-name="Trazado 194943" d="M1346.556,142.428a48.214,48.214,0,1,0,48.214-48.214,48.214,48.214,0,0,0-48.214,48.214" transform="translate(-1346.556 -94.214)" fill="#fff"/>
    </clipPath>
    <clipPath id="clip-path-26">
      <path id="Trazado_194944" data-name="Trazado 194944" d="M1764.24,142.428a48.214,48.214,0,1,0,48.214-48.214,48.214,48.214,0,0,0-48.214,48.214" transform="translate(-1764.24 -94.214)" fill="#fff"/>
    </clipPath>
    <clipPath id="clip-path-27">
      <path id="Trazado_194945" data-name="Trazado 194945" d="M2181.925,142.428a48.214,48.214,0,1,0,48.214-48.214,48.214,48.214,0,0,0-48.214,48.214" transform="translate(-2181.925 -94.214)" fill="#fff"/>
    </clipPath>
    <clipPath id="clip-path-29">
      <rect id="Rectángulo_66278" data-name="Rectángulo 66278" width="50.662" height="50.699" fill="#636363"/>
    </clipPath>
    <clipPath id="clip-path-30">
      <rect id="Rectángulo_66279" data-name="Rectángulo 66279" width="37.761" height="50.699" fill="#636363"/>
    </clipPath>
    <clipPath id="clip-path-31">
      <rect id="Rectángulo_66280" data-name="Rectángulo 66280" width="50.694" height="50.699" fill="#636363"/>
    </clipPath>
    <clipPath id="clip-path-32">
      <rect id="Rectángulo_66281" data-name="Rectángulo 66281" width="51.32" height="50.699" fill="#636363"/>
    </clipPath>
    <clipPath id="clip-path-33">
      <rect id="Rectángulo_66282" data-name="Rectángulo 66282" width="48.044" height="50.699" fill="#636363"/>
    </clipPath>
    <clipPath id="clip-path-34">
      <rect id="Rectángulo_66283" data-name="Rectángulo 66283" width="54.071" height="50.699" fill="#636363"/>
    </clipPath>
  </defs>
  <g id="Grupo_871901" data-name="Grupo 871901" transform="translate(-285 -3557.5)">
    <g id="Grupo_871888" data-name="Grupo 871888" transform="translate(285 3571.262)">
      <g id="Grupo_871887" data-name="Grupo 871887" clip-path="url(#clip-path)">
        <g id="Grupo_871858" data-name="Grupo 871858" transform="translate(0 0)">
          <g id="Grupo_871857" data-name="Grupo 871857" clip-path="url(#clip-path-2)">
            <path id="Trazado_194910" data-name="Trazado 194910" d="M2274.318,129.161a57.447,57.447,0,1,1-57.447-57.446,57.446,57.446,0,0,1,57.447,57.446" transform="translate(-1273.342 -42.288)" fill="#004b89"/>
            <path id="Trazado_194911" data-name="Trazado 194911" d="M2298.2,334.18a1.026,1.026,0,0,0-1.026,1.026v20.522a1.026,1.026,0,0,0,2.052,0V335.206a1.026,1.026,0,0,0-1.026-1.026" transform="translate(-1354.569 -197.055)" fill="#004b89"/>
            <path id="Trazado_194912" data-name="Trazado 194912" d="M1856.633,129.161a57.447,57.447,0,1,1-57.447-57.446,57.446,57.446,0,0,1,57.447,57.446" transform="translate(-1027.047 -42.288)" fill="#2478be"/>
            <path id="Trazado_194913" data-name="Trazado 194913" d="M1880.24,55.809a1.026,1.026,0,0,1-1.026-1.026V34.262a1.026,1.026,0,1,1,2.052,0V54.783a1.026,1.026,0,0,1-1.026,1.026" transform="translate(-1108.111 -19.598)" fill="#2478be"/>
            <path id="Trazado_194914" data-name="Trazado 194914" d="M1438.948,129.161A57.447,57.447,0,1,1,1381.5,71.715a57.446,57.446,0,0,1,57.447,57.446" transform="translate(-780.752 -42.288)" fill="#299ae6"/>
            <path id="Trazado_194915" data-name="Trazado 194915" d="M1462.858,333.388a1.026,1.026,0,0,0-1.026,1.026v20.522a1.026,1.026,0,0,0,2.052,0V334.414a1.026,1.026,0,0,0-1.026-1.026" transform="translate(-861.995 -196.588)" fill="#299ae6"/>
            <path id="Trazado_194916" data-name="Trazado 194916" d="M1021.263,129.161a57.447,57.447,0,1,1-57.447-57.446,57.446,57.446,0,0,1,57.447,57.446" transform="translate(-534.457 -42.288)" fill="#7433ee"/>
            <path id="Trazado_194917" data-name="Trazado 194917" d="M1043.9,55.809a1.026,1.026,0,0,1-1.026-1.026V34.262a1.026,1.026,0,1,1,2.052,0V54.783a1.026,1.026,0,0,1-1.026,1.026" transform="translate(-614.947 -19.598)" fill="#7433ee"/>
            <path id="Trazado_194918" data-name="Trazado 194918" d="M185.821,128.894a57.447,57.447,0,1,1-57.447-57.447,57.447,57.447,0,0,1,57.447,57.447" transform="translate(-41.824 -42.13)" fill="#c0a2fa"/>
            <path id="Trazado_194919" data-name="Trazado 194919" d="M209.466,52.794a1.026,1.026,0,0,1-1.026-1.026V31.247a1.026,1.026,0,0,1,2.052,0V51.768a1.026,1.026,0,0,1-1.026,1.026" transform="translate(-122.91 -17.82)" fill="#c0a2fa"/>
            <path id="Trazado_194920" data-name="Trazado 194920" d="M603.579,129.161a57.447,57.447,0,1,1-57.447-57.446,57.446,57.446,0,0,1,57.447,57.446" transform="translate(-288.162 -42.288)" fill="#a577fd"/>
            <path id="Trazado_194921" data-name="Trazado 194921" d="M627.427,344.388a1.026,1.026,0,0,0-1.026,1.026v20.522a1.026,1.026,0,1,0,2.052,0V345.414a1.026,1.026,0,0,0-1.026-1.026" transform="translate(-369.368 -203.074)" fill="#a577fd"/>
            <g id="Grupo_871826" data-name="Grupo 871826" transform="translate(34.675 34.889)" opacity="0.35" style="mix-blend-mode: multiply;isolation: isolate">
              <g id="Grupo_871825" data-name="Grupo 871825">
                <g id="Grupo_871824" data-name="Grupo 871824" clip-path="url(#clip-path-3)">
                  <g id="Grupo_871823" data-name="Grupo 871823">
                    <g id="Grupo_871822" data-name="Grupo 871822">
                      <g id="Grupo_871821" data-name="Grupo 871821" clip-path="url(#clip-path-3)">
                        <path id="Trazado_194922" data-name="Trazado 194922" d="M188.255,136.9A51.876,51.876,0,1,1,136.38,85.024,51.875,51.875,0,0,1,188.255,136.9" transform="translate(-84.504 -85.024)" fill="#383838"/>
                      </g>
                    </g>
                  </g>
                </g>
              </g>
            </g>
            <g id="Grupo_871832" data-name="Grupo 871832" transform="translate(207.991 36.894)" opacity="0.35" style="mix-blend-mode: multiply;isolation: isolate">
              <g id="Grupo_871831" data-name="Grupo 871831">
                <g id="Grupo_871830" data-name="Grupo 871830" clip-path="url(#clip-path-5)">
                  <g id="Grupo_871829" data-name="Grupo 871829">
                    <g id="Grupo_871828" data-name="Grupo 871828">
                      <g id="Grupo_871827" data-name="Grupo 871827" clip-path="url(#clip-path-5)">
                        <path id="Trazado_194923" data-name="Trazado 194923" d="M606.843,139.891a49.98,49.98,0,1,1-49.98-49.98,49.98,49.98,0,0,1,49.98,49.98" transform="translate(-506.883 -89.911)" fill="#383838"/>
                      </g>
                    </g>
                  </g>
                </g>
              </g>
            </g>
            <g id="Grupo_871838" data-name="Grupo 871838" transform="translate(379.38 36.894)" opacity="0.35" style="mix-blend-mode: multiply;isolation: isolate">
              <g id="Grupo_871837" data-name="Grupo 871837">
                <g id="Grupo_871836" data-name="Grupo 871836" clip-path="url(#clip-path-7)">
                  <g id="Grupo_871835" data-name="Grupo 871835">
                    <g id="Grupo_871834" data-name="Grupo 871834">
                      <g id="Grupo_871833" data-name="Grupo 871833" clip-path="url(#clip-path-7)">
                        <path id="Trazado_194924" data-name="Trazado 194924" d="M1024.528,139.891a49.98,49.98,0,1,1-49.98-49.98,49.98,49.98,0,0,1,49.98,49.98" transform="translate(-924.568 -89.911)" fill="#383838"/>
                      </g>
                    </g>
                  </g>
                </g>
              </g>
            </g>
            <g id="Grupo_871844" data-name="Grupo 871844" transform="translate(550.769 36.894)" opacity="0.35" style="mix-blend-mode: multiply;isolation: isolate">
              <g id="Grupo_871843" data-name="Grupo 871843">
                <g id="Grupo_871842" data-name="Grupo 871842" clip-path="url(#clip-path-9)">
                  <g id="Grupo_871841" data-name="Grupo 871841">
                    <g id="Grupo_871840" data-name="Grupo 871840">
                      <g id="Grupo_871839" data-name="Grupo 871839" clip-path="url(#clip-path-9)">
                        <path id="Trazado_194925" data-name="Trazado 194925" d="M1442.212,139.891a49.98,49.98,0,1,1-49.98-49.98,49.98,49.98,0,0,1,49.98,49.98" transform="translate(-1342.251 -89.911)" fill="#383838"/>
                      </g>
                    </g>
                  </g>
                </g>
              </g>
            </g>
            <g id="Grupo_871850" data-name="Grupo 871850" transform="translate(722.161 36.894)" opacity="0.35" style="mix-blend-mode: multiply;isolation: isolate">
              <g id="Grupo_871849" data-name="Grupo 871849">
                <g id="Grupo_871848" data-name="Grupo 871848" clip-path="url(#clip-path-11)">
                  <g id="Grupo_871847" data-name="Grupo 871847">
                    <g id="Grupo_871846" data-name="Grupo 871846">
                      <g id="Grupo_871845" data-name="Grupo 871845" clip-path="url(#clip-path-11)">
                        <path id="Trazado_194926" data-name="Trazado 194926" d="M1859.9,139.891a49.98,49.98,0,1,1-49.98-49.98,49.98,49.98,0,0,1,49.98,49.98" transform="translate(-1759.938 -89.911)" fill="#383838"/>
                      </g>
                    </g>
                  </g>
                </g>
              </g>
            </g>
            <g id="Grupo_871856" data-name="Grupo 871856" transform="translate(893.549 36.894)" opacity="0.35" style="mix-blend-mode: multiply;isolation: isolate">
              <g id="Grupo_871855" data-name="Grupo 871855">
                <g id="Grupo_871854" data-name="Grupo 871854" clip-path="url(#clip-path-9)">
                  <g id="Grupo_871853" data-name="Grupo 871853">
                    <g id="Grupo_871852" data-name="Grupo 871852">
                      <g id="Grupo_871851" data-name="Grupo 871851" clip-path="url(#clip-path-9)">
                        <path id="Trazado_194927" data-name="Trazado 194927" d="M2277.582,139.891a49.98,49.98,0,1,1-49.979-49.98,49.98,49.98,0,0,1,49.979,49.98" transform="translate(-2177.621 -89.911)" fill="#383838"/>
                      </g>
                    </g>
                  </g>
                </g>
              </g>
            </g>
          </g>
        </g>
        <g id="Grupo_871860" data-name="Grupo 871860" transform="translate(34.644 34.857)">
          <g id="Grupo_871859" data-name="Grupo 871859" clip-path="url(#clip-path-15)">
            <rect id="Rectángulo_66263" data-name="Rectángulo 66263" width="145.298" height="145.298" transform="translate(-49.772 37.171) rotate(-36.754)" fill="url(#linear-gradient)"/>
          </g>
        </g>
        <g id="Grupo_871862" data-name="Grupo 871862" transform="translate(206.063 34.966)">
          <g id="Grupo_871861" data-name="Grupo 871861" clip-path="url(#clip-path-16)">
            <rect id="Rectángulo_66264" data-name="Rectángulo 66264" width="144.515" height="144.516" transform="matrix(0.821, -0.571, 0.571, 0.821, -48.68, 33.891)" fill="url(#linear-gradient-2)"/>
          </g>
        </g>
        <g id="Grupo_871864" data-name="Grupo 871864" transform="translate(377.453 34.966)">
          <g id="Grupo_871863" data-name="Grupo 871863" clip-path="url(#clip-path-17)">
            <rect id="Rectángulo_66265" data-name="Rectángulo 66265" width="142.857" height="142.857" transform="translate(-46.384 28.608) rotate(-31.665)" fill="url(#linear-gradient-3)"/>
          </g>
        </g>
        <g id="Grupo_871866" data-name="Grupo 871866" transform="translate(548.843 34.966)">
          <g id="Grupo_871865" data-name="Grupo 871865" clip-path="url(#clip-path-18)">
            <rect id="Rectángulo_66266" data-name="Rectángulo 66266" width="138.505" height="138.505" transform="translate(-40.487 19.425) rotate(-25.63)" fill="url(#linear-gradient-4)"/>
          </g>
        </g>
        <g id="Grupo_871868" data-name="Grupo 871868" transform="translate(720.232 34.966)">
          <g id="Grupo_871867" data-name="Grupo 871867" clip-path="url(#clip-path-19)">
            <rect id="Rectángulo_66267" data-name="Rectángulo 66267" width="140.901" height="140.901" transform="matrix(0.877, -0.48, 0.48, 0.877, -43.711, 23.913)" fill="url(#linear-gradient-5)"/>
          </g>
        </g>
        <g id="Grupo_871870" data-name="Grupo 871870" transform="translate(891.622 34.966)">
          <g id="Grupo_871869" data-name="Grupo 871869" clip-path="url(#clip-path-20)">
            <rect id="Rectángulo_66268" data-name="Rectángulo 66268" width="141.389" height="141.389" transform="matrix(0.871, -0.491, 0.491, 0.871, -44.375, 24.978)" fill="url(#linear-gradient-6)"/>
          </g>
        </g>
        <g id="Grupo_871872" data-name="Grupo 871872" transform="translate(0 0)">
          <g id="Grupo_871871" data-name="Grupo 871871" clip-path="url(#clip-path-2)">
            <path id="Trazado_194934" data-name="Trazado 194934" d="M86.47,297.2A86.47,86.47,0,0,1,0,210.732H1.551a84.919,84.919,0,0,0,144.966,60.047,84.364,84.364,0,0,0,24.872-60.047h1.551A86.47,86.47,0,0,1,86.47,297.2" transform="translate(0 -124.261)" fill="#c0a2fa"/>
            <path id="Trazado_194935" data-name="Trazado 194935" d="M590.626,86.47h-1.551a84.919,84.919,0,0,0-169.839,0h-1.551a86.47,86.47,0,0,1,172.941,0" transform="translate(-246.295 0)" fill="#a577fd"/>
            <path id="Trazado_194936" data-name="Trazado 194936" d="M921.84,297.2a86.47,86.47,0,0,1-86.47-86.471h1.551a84.919,84.919,0,1,0,169.838,0h1.551A86.47,86.47,0,0,1,921.84,297.2" transform="translate(-492.59 -124.261)" fill="#7433ee"/>
            <path id="Trazado_194937" data-name="Trazado 194937" d="M1425.994,86.47h-1.552a84.919,84.919,0,0,0-169.838,0h-1.552a86.471,86.471,0,0,1,172.941,0" transform="translate(-738.884 0)" fill="#299ae6"/>
            <path id="Trazado_194938" data-name="Trazado 194938" d="M1757.209,297.2a86.47,86.47,0,0,1-86.47-86.471h1.551a84.919,84.919,0,1,0,169.839,0h1.551a86.47,86.47,0,0,1-86.471,86.471" transform="translate(-985.18 -124.261)" fill="#2478be"/>
            <path id="Trazado_194939" data-name="Trazado 194939" d="M2261.364,86.47h-1.551a84.919,84.919,0,0,0-169.838,0h-1.552a86.471,86.471,0,0,1,172.941,0" transform="translate(-1231.475 0)" fill="#004b89"/>
          </g>
        </g>
        <g id="Grupo_871874" data-name="Grupo 871874" transform="translate(38.337 38.55)">
          <g id="Grupo_871873" data-name="Grupo 871873" clip-path="url(#clip-path-22)">
            <rect id="Rectángulo_66270" data-name="Rectángulo 66270" width="132.019" height="132.019" transform="matrix(0.862, -0.507, 0.507, 0.862, -42.159, 24.821)" fill="#fff"/>
          </g>
        </g>
        <g id="Grupo_871876" data-name="Grupo 871876" transform="translate(209.756 38.659)">
          <g id="Grupo_871875" data-name="Grupo 871875" clip-path="url(#clip-path-23)">
            <rect id="Rectángulo_66271" data-name="Rectángulo 66271" width="133.448" height="133.449" transform="matrix(0.838, -0.546, 0.546, 0.838, -44.127, 28.787)" fill="#fff"/>
          </g>
        </g>
        <g id="Grupo_871878" data-name="Grupo 871878" transform="translate(381.146 38.659)">
          <g id="Grupo_871877" data-name="Grupo 871877" clip-path="url(#clip-path-24)">
            <rect id="Rectángulo_66272" data-name="Rectángulo 66272" width="133.066" height="133.066" transform="matrix(0.845, -0.535, 0.535, 0.845, -43.598, 27.627)" fill="#fff"/>
          </g>
        </g>
        <g id="Grupo_871880" data-name="Grupo 871880" transform="translate(552.536 38.659)">
          <g id="Grupo_871879" data-name="Grupo 871879" clip-path="url(#clip-path-25)">
            <rect id="Rectángulo_66273" data-name="Rectángulo 66273" width="132.15" height="132.15" transform="translate(-42.339 25.148) rotate(-30.709)" fill="#fff"/>
          </g>
        </g>
        <g id="Grupo_871882" data-name="Grupo 871882" transform="translate(723.925 38.659)">
          <g id="Grupo_871881" data-name="Grupo 871881" clip-path="url(#clip-path-26)">
            <rect id="Rectángulo_66274" data-name="Rectángulo 66274" width="133.2" height="133.2" transform="matrix(0.842, -0.539, 0.539, 0.842, -43.783, 28.025)" fill="#fff"/>
          </g>
        </g>
        <g id="Grupo_871884" data-name="Grupo 871884" transform="translate(895.315 38.659)">
          <g id="Grupo_871883" data-name="Grupo 871883" clip-path="url(#clip-path-27)">
            <rect id="Rectángulo_66275" data-name="Rectángulo 66275" width="133.535" height="133.536" transform="matrix(0.836, -0.549, 0.549, 0.836, -44.247, 29.062)" fill="#fff"/>
          </g>
        </g>
        <g id="Grupo_871886" data-name="Grupo 871886" transform="translate(0 0)">
          <g id="Grupo_871885" data-name="Grupo 871885" clip-path="url(#clip-path-2)">
            <path id="Trazado_194959" data-name="Trazado 194959" d="M2300.275,212.949l0,0-.572.743c.191-.248.385-.492.575-.741" transform="translate(-1356.058 -125.567)" fill="#c5cccc"/>
            <path id="Trazado_194960" data-name="Trazado 194960" d="M2316.771,199.743l-.107.139,0,0-1.4,1.879Z" transform="translate(-1365.235 -117.782)" fill="#c5cccc"/>
            <path id="Trazado_194961" data-name="Trazado 194961" d="M2304.832,204.041l2.17-2.822h0l-2.172,2.821h0" transform="translate(-1359.083 -118.652)" fill="#c5cccc"/>
            <path id="Trazado_194962" data-name="Trazado 194962" d="M2311.84,204.918l-2.169,2.82.006.007,2.167-2.823,0,0" transform="translate(-1361.937 -120.833)" fill="#c5cccc"/>
            <path id="Trazado_194963" data-name="Trazado 194963" d="M2313.845,196.123l.11-.143.028-.037Z" transform="translate(-1364.399 -115.541)" fill="#c5cccc"/>
          </g>
        </g>
      </g>
    </g>
    <path id="Trazado_200362" data-name="Trazado 200362" d="M-14.133-4.342V0h-3.085V-12.8h5.106a5.948,5.948,0,0,1,2.6.541,4.074,4.074,0,0,1,1.749,1.538,4.2,4.2,0,0,1,.62,2.263,3.7,3.7,0,0,1-1.34,2.993,5.561,5.561,0,0,1-3.678,1.121Zm0-2.382h2.021a1.906,1.906,0,0,0,1.367-.448,1.665,1.665,0,0,0,.47-1.266,2.059,2.059,0,0,0-.483-1.433,1.712,1.712,0,0,0-1.318-.545h-2.057ZM-2.514,0H-5.484V-13.5h2.971ZM4.667,0a3.344,3.344,0,0,1-.281-.853A2.754,2.754,0,0,1,2.1.176,3.374,3.374,0,0,1-.185-.637a2.588,2.588,0,0,1-.94-2.043A2.66,2.66,0,0,1,.018-5.019,5.821,5.821,0,0,1,3.34-5.81h.914v-.5q0-1.316-1.134-1.316A.927.927,0,0,0,2.065-6.587H-.9A2.655,2.655,0,0,1,.277-8.825a4.931,4.931,0,0,1,2.993-.86A4.323,4.323,0,0,1,6.144-8.8,3.086,3.086,0,0,1,7.225-6.363v4.21a4.311,4.311,0,0,0,.4,2V0ZM2.813-1.934a1.652,1.652,0,0,0,.918-.237,1.487,1.487,0,0,0,.523-.536V-4.228H3.393q-1.547,0-1.547,1.389a.848.848,0,0,0,.272.655A.986.986,0,0,0,2.813-1.934ZM11.584-9.51l.1,1.116A3.225,3.225,0,0,1,14.4-9.686a2.713,2.713,0,0,1,2.219.888,4.226,4.226,0,0,1,.76,2.672V0H14.405V-6a1.6,1.6,0,0,0-.29-1.059A1.342,1.342,0,0,0,13.061-7.4a1.413,1.413,0,0,0-1.292.686V0H8.807V-9.51Z" transform="translate(372 3571)" fill="#12263f"/>
    <path id="Trazado_200364" data-name="Trazado 200364" d="M-25.036-4.342V0h-3.085V-12.8h5.106a5.948,5.948,0,0,1,2.6.541,4.074,4.074,0,0,1,1.749,1.538,4.2,4.2,0,0,1,.62,2.263,3.7,3.7,0,0,1-1.34,2.993,5.561,5.561,0,0,1-3.678,1.121Zm0-2.382h2.021a1.906,1.906,0,0,0,1.367-.448,1.665,1.665,0,0,0,.47-1.266,2.059,2.059,0,0,0-.483-1.433,1.712,1.712,0,0,0-1.318-.545h-2.057Zm14.247-.105-.976-.07a1.752,1.752,0,0,0-1.793.879V0h-2.962V-9.51h2.777l.1,1.222a2.294,2.294,0,0,1,2.083-1.4,2.888,2.888,0,0,1,.826.105Zm6.732,5.8A3.054,3.054,0,0,1-6.6.176a3,3,0,0,1-2.369-.91,3.826,3.826,0,0,1-.8-2.615V-9.51h2.962v6.179A1.065,1.065,0,0,0-5.621-2.109a1.548,1.548,0,0,0,1.45-.729V-9.51h2.979V0H-3.968ZM5.032.176A4.889,4.889,0,0,1,1.49-1.129a4.507,4.507,0,0,1-1.354-3.4v-.246A5.84,5.84,0,0,1,.677-7.348,3.955,3.955,0,0,1,2.254-9.075a4.763,4.763,0,0,1,2.461-.611A4.117,4.117,0,0,1,7.879-8.442,4.887,4.887,0,0,1,9.04-4.975v1.151H3.151a2.135,2.135,0,0,0,.694,1.257,2.066,2.066,0,0,0,1.389.457,2.662,2.662,0,0,0,2.2-.984l1.354,1.6A3.784,3.784,0,0,1,7.216-.277,5.3,5.3,0,0,1,5.032.176ZM4.7-7.4q-1.3,0-1.547,1.723H6.139v-.229a1.467,1.467,0,0,0-.36-1.1A1.434,1.434,0,0,0,4.7-7.4ZM19.059-4.676a5.8,5.8,0,0,1-.967,3.595A3.238,3.238,0,0,1,15.368.176,2.81,2.81,0,0,1,13.03-.976L12.907,0H10.252V-13.5h2.962v4.755a2.711,2.711,0,0,1,2.136-.94,3.239,3.239,0,0,1,2.742,1.274,5.826,5.826,0,0,1,.967,3.586Zm-2.971-.189a3.866,3.866,0,0,0-.365-1.952A1.229,1.229,0,0,0,14.6-7.4a1.418,1.418,0,0,0-1.389.763v3.773a1.426,1.426,0,0,0,1.406.755,1.258,1.258,0,0,0,1.327-1.018A7.309,7.309,0,0,0,16.088-4.865ZM25.721,0a3.344,3.344,0,0,1-.281-.853A2.754,2.754,0,0,1,23.155.176,3.374,3.374,0,0,1,20.87-.637a2.588,2.588,0,0,1-.94-2.043,2.66,2.66,0,0,1,1.143-2.338,5.821,5.821,0,0,1,3.322-.791h.914v-.5q0-1.316-1.134-1.316A.927.927,0,0,0,23.12-6.587H20.158a2.655,2.655,0,0,1,1.173-2.239,4.931,4.931,0,0,1,2.993-.86A4.323,4.323,0,0,1,27.2-8.8a3.086,3.086,0,0,1,1.081,2.435v4.21a4.311,4.311,0,0,0,.4,2V0ZM23.867-1.934a1.652,1.652,0,0,0,.918-.237,1.487,1.487,0,0,0,.523-.536V-4.228h-.861q-1.547,0-1.547,1.389a.848.848,0,0,0,.272.655A.986.986,0,0,0,23.867-1.934Z" transform="translate(714 3571)" fill="#12263f"/>
    <path id="Trazado_200365" data-name="Trazado 200365" d="M-29.329-4.526H-31V0h-3.085V-12.8h5.036a5.621,5.621,0,0,1,3.56,1.01,3.421,3.421,0,0,1,1.283,2.853,4.155,4.155,0,0,1-.541,2.213A3.837,3.837,0,0,1-26.437-5.3l2.672,5.167V0h-3.3ZM-31-6.9h1.951a1.751,1.751,0,0,0,1.323-.463,1.788,1.788,0,0,0,.444-1.291,1.809,1.809,0,0,0-.448-1.3,1.735,1.735,0,0,0-1.318-.471H-31ZM-17.877.176a4.889,4.889,0,0,1-3.542-1.305,4.507,4.507,0,0,1-1.354-3.4v-.246a5.84,5.84,0,0,1,.541-2.575,3.955,3.955,0,0,1,1.578-1.727,4.763,4.763,0,0,1,2.461-.611,4.117,4.117,0,0,1,3.164,1.244,4.887,4.887,0,0,1,1.16,3.467v1.151h-5.889a2.135,2.135,0,0,0,.694,1.257,2.066,2.066,0,0,0,1.389.457,2.662,2.662,0,0,0,2.2-.984l1.354,1.6A3.784,3.784,0,0,1-15.693-.277,5.3,5.3,0,0,1-17.877.176ZM-18.211-7.4q-1.3,0-1.547,1.723h2.988v-.229a1.467,1.467,0,0,0-.36-1.1A1.434,1.434,0,0,0-18.211-7.4ZM-9-3.524-7.5-9.51h3.12L-7.479,0H-10.5l-3.1-9.51h3.129ZM-.369,0H-3.34V-9.51H-.369ZM-3.516-11.962A1.322,1.322,0,0,1-3.059-13a1.724,1.724,0,0,1,1.187-.4A1.724,1.724,0,0,1-.686-13a1.322,1.322,0,0,1,.457,1.037,1.322,1.322,0,0,1-.457,1.037,1.724,1.724,0,0,1-1.187.4,1.724,1.724,0,0,1-1.187-.4A1.322,1.322,0,0,1-3.516-11.962Zm9.949,9.29a.684.684,0,0,0-.4-.606,6.016,6.016,0,0,0-1.5-.475A6.853,6.853,0,0,1,2.707-4.4a3.062,3.062,0,0,1-1.1-.971A2.319,2.319,0,0,1,1.23-6.68,2.628,2.628,0,0,1,2.312-8.837a4.453,4.453,0,0,1,2.83-.848,4.934,4.934,0,0,1,3.023.853A2.666,2.666,0,0,1,9.308-6.592H6.337q0-1.143-1.2-1.143a1.194,1.194,0,0,0-.782.259.8.8,0,0,0-.316.646.737.737,0,0,0,.387.642,3.654,3.654,0,0,0,1.235.4,10.671,10.671,0,0,1,1.49.378A2.706,2.706,0,0,1,9.29-2.76,2.491,2.491,0,0,1,8.134-.642,5.068,5.068,0,0,1,5.142.176a5.172,5.172,0,0,1-2.18-.439,3.645,3.645,0,0,1-1.494-1.2A2.707,2.707,0,0,1,.932-3.05H3.7a1.145,1.145,0,0,0,.439.962,1.808,1.808,0,0,0,1.081.3,1.422,1.422,0,0,0,.91-.246A.787.787,0,0,0,6.434-2.672ZM13.8,0H10.828V-9.51H13.8ZM10.652-11.962A1.322,1.322,0,0,1,11.109-13a1.724,1.724,0,0,1,1.187-.4,1.724,1.724,0,0,1,1.187.4,1.322,1.322,0,0,1,.457,1.037,1.322,1.322,0,0,1-.457,1.037,1.724,1.724,0,0,1-1.187.4,1.724,1.724,0,0,1-1.187-.4A1.322,1.322,0,0,1,10.652-11.962Zm4.6,7.119A5.613,5.613,0,0,1,15.8-7.378a3.96,3.96,0,0,1,1.591-1.709,4.791,4.791,0,0,1,2.435-.6,4.373,4.373,0,0,1,3.366,1.323,5.076,5.076,0,0,1,1.23,3.6v.105A4.925,4.925,0,0,1,23.19-1.129,4.384,4.384,0,0,1,19.846.176a4.434,4.434,0,0,1-3.261-1.217,4.761,4.761,0,0,1-1.327-3.3Zm2.962.185a3.538,3.538,0,0,0,.413,1.934,1.376,1.376,0,0,0,1.222.615q1.582,0,1.617-2.435v-.3q0-2.558-1.635-2.558-1.485,0-1.608,2.206ZM20.232-13.5h3.129l-2.443,2.76-2.417,0ZM28.45-9.51l.1,1.116a3.225,3.225,0,0,1,2.716-1.292,2.713,2.713,0,0,1,2.219.888,4.226,4.226,0,0,1,.76,2.672V0H31.271V-6a1.6,1.6,0,0,0-.29-1.059A1.342,1.342,0,0,0,29.927-7.4a1.413,1.413,0,0,0-1.292.686V0H25.673V-9.51Z" transform="translate(1057 3571)" fill="#12263f"/>
    <path id="Trazado_200363" data-name="Trazado 200363" d="M-40.856,0V-12.8h4.122a6.064,6.064,0,0,1,3.05.769A5.406,5.406,0,0,1-31.57-9.857,6.554,6.554,0,0,1-30.8-6.715v.589a6.592,6.592,0,0,1-.743,3.151A5.429,5.429,0,0,1-33.636-.8a5.93,5.93,0,0,1-3.01.8Zm3.085-10.415v8.042H-36.7a2.4,2.4,0,0,0,2.039-.945,4.63,4.63,0,0,0,.712-2.808V-6.68a4.592,4.592,0,0,0-.712-2.795,2.442,2.442,0,0,0-2.074-.94ZM-24.754.176A4.889,4.889,0,0,1-28.3-1.129a4.507,4.507,0,0,1-1.354-3.4v-.246a5.84,5.84,0,0,1,.541-2.575,3.955,3.955,0,0,1,1.578-1.727,4.763,4.763,0,0,1,2.461-.611,4.117,4.117,0,0,1,3.164,1.244,4.887,4.887,0,0,1,1.16,3.467v1.151h-5.889a2.135,2.135,0,0,0,.694,1.257,2.066,2.066,0,0,0,1.389.457,2.662,2.662,0,0,0,2.2-.984L-21-1.494A3.784,3.784,0,0,1-22.57-.277,5.3,5.3,0,0,1-24.754.176ZM-25.088-7.4q-1.3,0-1.547,1.723h2.988v-.229a1.467,1.467,0,0,0-.36-1.1A1.434,1.434,0,0,0-25.088-7.4Zm10.512,4.729a.684.684,0,0,0-.4-.606,6.016,6.016,0,0,0-1.5-.475A6.853,6.853,0,0,1-18.3-4.4a3.062,3.062,0,0,1-1.1-.971,2.319,2.319,0,0,1-.378-1.31A2.628,2.628,0,0,1-18.7-8.837a4.453,4.453,0,0,1,2.83-.848,4.934,4.934,0,0,1,3.023.853A2.666,2.666,0,0,1-11.7-6.592h-2.971q0-1.143-1.2-1.143a1.194,1.194,0,0,0-.782.259.8.8,0,0,0-.316.646.737.737,0,0,0,.387.642,3.654,3.654,0,0,0,1.235.4,10.671,10.671,0,0,1,1.49.378A2.706,2.706,0,0,1-11.72-2.76,2.491,2.491,0,0,1-12.876-.642a5.068,5.068,0,0,1-2.993.817,5.172,5.172,0,0,1-2.18-.439,3.645,3.645,0,0,1-1.494-1.2,2.707,2.707,0,0,1-.536-1.591h2.769a1.145,1.145,0,0,0,.439.962,1.808,1.808,0,0,0,1.081.3,1.422,1.422,0,0,0,.91-.246A.787.787,0,0,0-14.577-2.672ZM-4.979,0A3.344,3.344,0,0,1-5.26-.853,2.754,2.754,0,0,1-7.545.176,3.374,3.374,0,0,1-9.831-.637a2.588,2.588,0,0,1-.94-2.043A2.66,2.66,0,0,1-9.628-5.019,5.821,5.821,0,0,1-6.306-5.81h.914v-.5q0-1.316-1.134-1.316A.927.927,0,0,0-7.581-6.587h-2.962A2.655,2.655,0,0,1-9.369-8.825a4.931,4.931,0,0,1,2.993-.86A4.323,4.323,0,0,1-3.5-8.8,3.086,3.086,0,0,1-2.421-6.363v4.21a4.311,4.311,0,0,0,.4,2V0ZM-6.833-1.934a1.652,1.652,0,0,0,.918-.237,1.487,1.487,0,0,0,.523-.536V-4.228h-.861Q-7.8-4.228-7.8-2.839a.848.848,0,0,0,.272.655A.986.986,0,0,0-6.833-1.934Zm11.8-4.9L3.995-6.9A1.752,1.752,0,0,0,2.2-6.021V0H-.76V-9.51H2.017l.1,1.222A2.294,2.294,0,0,1,4.2-9.686a2.888,2.888,0,0,1,.826.105Zm6.82,0-.976-.07a1.752,1.752,0,0,0-1.793.879V0H6.06V-9.51H8.837l.1,1.222a2.294,2.294,0,0,1,2.083-1.4,2.888,2.888,0,0,1,.826.105Zm.378,1.986a5.613,5.613,0,0,1,.554-2.536,3.96,3.96,0,0,1,1.591-1.709,4.791,4.791,0,0,1,2.435-.6,4.373,4.373,0,0,1,3.366,1.323,5.076,5.076,0,0,1,1.23,3.6v.105a4.925,4.925,0,0,1-1.235,3.529A4.384,4.384,0,0,1,16.765.176,4.434,4.434,0,0,1,13.5-1.042a4.761,4.761,0,0,1-1.327-3.3Zm2.962.185a3.538,3.538,0,0,0,.413,1.934,1.376,1.376,0,0,0,1.222.615q1.582,0,1.617-2.435v-.3q0-2.558-1.635-2.558-1.485,0-1.608,2.206ZM25.774,0H22.8V-13.5h2.971Zm4.948,0H27.751V-13.5h2.971Zm1.45-4.843a5.613,5.613,0,0,1,.554-2.536,3.96,3.96,0,0,1,1.591-1.709,4.791,4.791,0,0,1,2.435-.6,4.373,4.373,0,0,1,3.366,1.323,5.076,5.076,0,0,1,1.23,3.6v.105a4.925,4.925,0,0,1-1.235,3.529A4.384,4.384,0,0,1,36.769.176a4.434,4.434,0,0,1-3.261-1.217,4.761,4.761,0,0,1-1.327-3.3Zm2.962.185a3.538,3.538,0,0,0,.413,1.934,1.376,1.376,0,0,0,1.222.615q1.582,0,1.617-2.435v-.3q0-2.558-1.635-2.558-1.485,0-1.608,2.206Z" transform="translate(542 3761)" fill="#12263f"/>
    <path id="Trazado_200366" data-name="Trazado 200366" d="M-61.528,0H-64.6V-12.8h3.076Zm4.808-9.51.1,1.116a3.27,3.27,0,0,1,2.716-1.292,2.407,2.407,0,0,1,2.435,1.433,3.165,3.165,0,0,1,2.795-1.433q2.892,0,2.971,3.5V0h-2.971V-6a1.813,1.813,0,0,0-.246-1.063,1.048,1.048,0,0,0-.9-.334,1.4,1.4,0,0,0-1.31.782l.009.123V0h-2.971V-5.985a1.906,1.906,0,0,0-.237-1.081,1.045,1.045,0,0,0-.905-.334,1.42,1.42,0,0,0-1.3.782V0H-59.5V-9.51Zm21.533,4.825a5.735,5.735,0,0,1-1,3.538A3.2,3.2,0,0,1-38.878.176a2.742,2.742,0,0,1-2.153-.958V3.656h-2.962V-9.51h2.769l.088.879A2.742,2.742,0,0,1-38.9-9.686a3.224,3.224,0,0,1,2.733,1.3,5.805,5.805,0,0,1,.976,3.564Zm-2.962-.185q0-2.531-1.477-2.531a1.394,1.394,0,0,0-1.406.756V-2.9a1.439,1.439,0,0,0,1.424.791q1.415,0,1.459-2.443ZM-30.757,0h-2.971V-13.5h2.971Zm6.425.176a4.889,4.889,0,0,1-3.542-1.305,4.507,4.507,0,0,1-1.354-3.4v-.246a5.84,5.84,0,0,1,.541-2.575A3.955,3.955,0,0,1-27.11-9.075a4.763,4.763,0,0,1,2.461-.611,4.117,4.117,0,0,1,3.164,1.244,4.887,4.887,0,0,1,1.16,3.467v1.151h-5.889a2.135,2.135,0,0,0,.694,1.257,2.066,2.066,0,0,0,1.389.457,2.662,2.662,0,0,0,2.2-.984l1.354,1.6A3.784,3.784,0,0,1-22.148-.277,5.3,5.3,0,0,1-24.333.176ZM-24.667-7.4q-1.3,0-1.547,1.723h2.988v-.229a1.467,1.467,0,0,0-.36-1.1A1.434,1.434,0,0,0-24.667-7.4Zm8.332-2.109.1,1.116a3.27,3.27,0,0,1,2.716-1.292,2.407,2.407,0,0,1,2.435,1.433A3.165,3.165,0,0,1-8.292-9.686q2.892,0,2.971,3.5V0H-8.292V-6a1.813,1.813,0,0,0-.246-1.063,1.048,1.048,0,0,0-.9-.334,1.4,1.4,0,0,0-1.31.782l.009.123V0h-2.971V-5.985a1.906,1.906,0,0,0-.237-1.081,1.045,1.045,0,0,0-.905-.334,1.42,1.42,0,0,0-1.3.782V0h-2.962V-9.51ZM.971.176A4.889,4.889,0,0,1-2.571-1.129a4.507,4.507,0,0,1-1.354-3.4v-.246a5.84,5.84,0,0,1,.541-2.575A3.955,3.955,0,0,1-1.806-9.075,4.763,4.763,0,0,1,.655-9.686,4.117,4.117,0,0,1,3.819-8.442a4.887,4.887,0,0,1,1.16,3.467v1.151H-.91A2.135,2.135,0,0,0-.215-2.566a2.066,2.066,0,0,0,1.389.457,2.662,2.662,0,0,0,2.2-.984l1.354,1.6A3.784,3.784,0,0,1,3.155-.277,5.3,5.3,0,0,1,.971.176ZM.637-7.4q-1.3,0-1.547,1.723H2.079v-.229a1.467,1.467,0,0,0-.36-1.1A1.434,1.434,0,0,0,.637-7.4ZM8.89-9.51l.1,1.116A3.225,3.225,0,0,1,11.7-9.686a2.713,2.713,0,0,1,2.219.888,4.226,4.226,0,0,1,.76,2.672V0H11.711V-6a1.6,1.6,0,0,0-.29-1.059A1.342,1.342,0,0,0,10.367-7.4a1.413,1.413,0,0,0-1.292.686V0H6.113V-9.51Zm10.881-2.364V-9.51h1.564v2.057H19.771V-3.1a1.111,1.111,0,0,0,.193.747,1.037,1.037,0,0,0,.765.211,4.345,4.345,0,0,0,.738-.053V-.079A5.466,5.466,0,0,1,19.8.176a3.1,3.1,0,0,1-2.259-.721,2.954,2.954,0,0,1-.729-2.188v-4.72H15.6V-9.51h1.213v-2.364ZM27.857,0a3.344,3.344,0,0,1-.281-.853A2.754,2.754,0,0,1,25.291.176a3.374,3.374,0,0,1-2.285-.813,2.588,2.588,0,0,1-.94-2.043,2.66,2.66,0,0,1,1.143-2.338A5.821,5.821,0,0,1,26.53-5.81h.914v-.5q0-1.316-1.134-1.316a.927.927,0,0,0-1.055,1.042H22.293a2.655,2.655,0,0,1,1.173-2.239,4.931,4.931,0,0,1,2.993-.86,4.323,4.323,0,0,1,2.874.888,3.086,3.086,0,0,1,1.081,2.435v4.21a4.311,4.311,0,0,0,.4,2V0ZM26-1.934a1.652,1.652,0,0,0,.918-.237,1.487,1.487,0,0,0,.523-.536V-4.228h-.861q-1.547,0-1.547,1.389a.848.848,0,0,0,.272.655A.986.986,0,0,0,26-1.934Zm10.072-.176a1.317,1.317,0,0,0,.967-.338,1.241,1.241,0,0,0,.334-.945h2.777A3.288,3.288,0,0,1,39.032-.826a4.168,4.168,0,0,1-2.887,1,4.22,4.22,0,0,1-3.27-1.3,5.125,5.125,0,0,1-1.2-3.6v-.123A5.792,5.792,0,0,1,32.212-7.4a3.872,3.872,0,0,1,1.534-1.7,4.573,4.573,0,0,1,2.373-.593,4.116,4.116,0,0,1,2.944,1.028,3.647,3.647,0,0,1,1.09,2.786H37.375A1.626,1.626,0,0,0,37.015-7a1.244,1.244,0,0,0-.967-.4Q34.9-7.4,34.7-5.933a10.357,10.357,0,0,0-.062,1.283,4.068,4.068,0,0,0,.343,1.986A1.187,1.187,0,0,0,36.075-2.109ZM44.53,0H41.559V-9.51H44.53ZM41.383-11.962A1.322,1.322,0,0,1,41.84-13a1.724,1.724,0,0,1,1.187-.4,1.724,1.724,0,0,1,1.187.4,1.322,1.322,0,0,1,.457,1.037,1.322,1.322,0,0,1-.457,1.037,1.724,1.724,0,0,1-1.187.4,1.724,1.724,0,0,1-1.187-.4A1.322,1.322,0,0,1,41.383-11.962Zm4.6,7.119a5.613,5.613,0,0,1,.554-2.536,3.96,3.96,0,0,1,1.591-1.709,4.791,4.791,0,0,1,2.435-.6,4.373,4.373,0,0,1,3.366,1.323,5.076,5.076,0,0,1,1.23,3.6v.105a4.925,4.925,0,0,1-1.235,3.529A4.384,4.384,0,0,1,50.577.176a4.434,4.434,0,0,1-3.261-1.217,4.761,4.761,0,0,1-1.327-3.3Zm2.962.185a3.538,3.538,0,0,0,.413,1.934,1.376,1.376,0,0,0,1.222.615q1.582,0,1.617-2.435v-.3q0-2.558-1.635-2.558-1.485,0-1.608,2.206ZM50.963-13.5h3.129l-2.443,2.76-2.417,0Zm8.218,3.99.1,1.116a3.225,3.225,0,0,1,2.716-1.292,2.713,2.713,0,0,1,2.219.888,4.226,4.226,0,0,1,.76,2.672V0H62V-6a1.6,1.6,0,0,0-.29-1.059A1.342,1.342,0,0,0,60.658-7.4a1.413,1.413,0,0,0-1.292.686V0H56.4V-9.51Z" transform="translate(882 3761)" fill="#12263f"/>
    <path id="Trazado_200367" data-name="Trazado 200367" d="M-48.3-2.373h5.37V0h-8.455V-12.8H-48.3ZM-36.409,0a3.344,3.344,0,0,1-.281-.853A2.754,2.754,0,0,1-38.975.176,3.374,3.374,0,0,1-41.26-.637a2.588,2.588,0,0,1-.94-2.043,2.66,2.66,0,0,1,1.143-2.338,5.821,5.821,0,0,1,3.322-.791h.914v-.5q0-1.316-1.134-1.316A.927.927,0,0,0-39.01-6.587h-2.962A2.655,2.655,0,0,1-40.8-8.825a4.931,4.931,0,0,1,2.993-.86,4.323,4.323,0,0,1,2.874.888,3.086,3.086,0,0,1,1.081,2.435v4.21a4.311,4.311,0,0,0,.4,2V0Zm-1.854-1.934a1.652,1.652,0,0,0,.918-.237,1.487,1.487,0,0,0,.523-.536V-4.228h-.861q-1.547,0-1.547,1.389a.848.848,0,0,0,.272.655A.986.986,0,0,0-38.263-1.934Zm8.771-7.576.1,1.116a3.225,3.225,0,0,1,2.716-1.292A2.713,2.713,0,0,1-24.46-8.8a4.226,4.226,0,0,1,.76,2.672V0H-26.67V-6a1.6,1.6,0,0,0-.29-1.059A1.342,1.342,0,0,0-28.015-7.4a1.413,1.413,0,0,0-1.292.686V0h-2.962V-9.51Zm10.925,7.225h4.333V0h-8.077V-1.652l4.219-5.572h-4.034V-9.51h7.8v1.6ZM-7.44,0a3.344,3.344,0,0,1-.281-.853A2.754,2.754,0,0,1-10.006.176a3.374,3.374,0,0,1-2.285-.813,2.588,2.588,0,0,1-.94-2.043,2.66,2.66,0,0,1,1.143-2.338A5.821,5.821,0,0,1-8.767-5.81h.914v-.5q0-1.316-1.134-1.316a.927.927,0,0,0-1.055,1.042H-13A2.655,2.655,0,0,1-11.83-8.825a4.931,4.931,0,0,1,2.993-.86A4.323,4.323,0,0,1-5.963-8.8,3.086,3.086,0,0,1-4.882-6.363v4.21a4.311,4.311,0,0,0,.4,2V0ZM-9.294-1.934a1.652,1.652,0,0,0,.918-.237,1.487,1.487,0,0,0,.523-.536V-4.228h-.861q-1.547,0-1.547,1.389a.848.848,0,0,0,.272.655A.986.986,0,0,0-9.294-1.934ZM-.444-9.51l.1,1.116A3.27,3.27,0,0,1,2.369-9.686,2.407,2.407,0,0,1,4.8-8.253,3.165,3.165,0,0,1,7.6-9.686q2.892,0,2.971,3.5V0H7.6V-6a1.813,1.813,0,0,0-.246-1.063,1.048,1.048,0,0,0-.9-.334,1.4,1.4,0,0,0-1.31.782l.009.123V0H2.184V-5.985a1.906,1.906,0,0,0-.237-1.081A1.045,1.045,0,0,0,1.042-7.4a1.42,1.42,0,0,0-1.3.782V0H-3.221V-9.51ZM15.385,0H12.415V-9.51h2.971ZM12.239-11.962A1.322,1.322,0,0,1,12.7-13a1.724,1.724,0,0,1,1.187-.4,1.724,1.724,0,0,1,1.187.4,1.322,1.322,0,0,1,.457,1.037,1.322,1.322,0,0,1-.457,1.037,1.724,1.724,0,0,1-1.187.4,1.724,1.724,0,0,1-1.187-.4A1.322,1.322,0,0,1,12.239-11.962ZM21.81.176a4.889,4.889,0,0,1-3.542-1.305,4.507,4.507,0,0,1-1.354-3.4v-.246a5.84,5.84,0,0,1,.541-2.575,3.955,3.955,0,0,1,1.578-1.727,4.763,4.763,0,0,1,2.461-.611,4.117,4.117,0,0,1,3.164,1.244,4.887,4.887,0,0,1,1.16,3.467v1.151H19.929a2.135,2.135,0,0,0,.694,1.257,2.066,2.066,0,0,0,1.389.457,2.662,2.662,0,0,0,2.2-.984l1.354,1.6A3.784,3.784,0,0,1,23.994-.277,5.3,5.3,0,0,1,21.81.176ZM21.476-7.4q-1.3,0-1.547,1.723h2.988v-.229a1.467,1.467,0,0,0-.36-1.1A1.434,1.434,0,0,0,21.476-7.4ZM29.729-9.51l.1,1.116a3.225,3.225,0,0,1,2.716-1.292,2.713,2.713,0,0,1,2.219.888,4.226,4.226,0,0,1,.76,2.672V0H32.55V-6a1.6,1.6,0,0,0-.29-1.059A1.342,1.342,0,0,0,31.206-7.4a1.413,1.413,0,0,0-1.292.686V0H26.952V-9.51ZM40.61-11.874V-9.51h1.564v2.057H40.61V-3.1a1.111,1.111,0,0,0,.193.747,1.037,1.037,0,0,0,.765.211,4.345,4.345,0,0,0,.738-.053V-.079a5.466,5.466,0,0,1-1.67.255,3.1,3.1,0,0,1-2.259-.721,2.954,2.954,0,0,1-.729-2.188v-4.72H36.435V-9.51h1.213v-2.364ZM42.7-4.843a5.613,5.613,0,0,1,.554-2.536,3.96,3.96,0,0,1,1.591-1.709,4.791,4.791,0,0,1,2.435-.6,4.373,4.373,0,0,1,3.366,1.323,5.076,5.076,0,0,1,1.23,3.6v.105a4.925,4.925,0,0,1-1.235,3.529A4.384,4.384,0,0,1,47.3.176a4.434,4.434,0,0,1-3.261-1.217,4.761,4.761,0,0,1-1.327-3.3Zm2.962.185a3.538,3.538,0,0,0,.413,1.934,1.376,1.376,0,0,0,1.222.615q1.582,0,1.617-2.435v-.3q0-2.558-1.635-2.558-1.485,0-1.608,2.206Z" transform="translate(1231 3761)" fill="#12263f"/>
    <g id="Grupo_871890" data-name="Grupo 871890" transform="translate(346.669 3632.18)">
      <g id="Grupo_871889" data-name="Grupo 871889" clip-path="url(#clip-path-29)">
        <path id="Trazado_194971" data-name="Trazado 194971" d="M26.368,51.9a3.223,3.223,0,0,0,1.4-5.153,2.721,2.721,0,0,0-1.108-.808.873.873,0,0,1-.586-.924c.013-.792-.01-1.584.01-2.375.013-.528.128-.632.648-.66.2-.01.4,0,.594,0q9.153,0,18.306,0a6.369,6.369,0,0,0,1.182-.088,2.389,2.389,0,0,0,2.02-2.345c.007-.2,0-.4,0-.594q0-14.055-.011-28.109a1.6,1.6,0,0,1,.744-1.527,2.112,2.112,0,0,0,.893-2.26,2.352,2.352,0,0,0-1.7-1.883,3.4,3.4,0,0,0-1.079-.107H34.819c-.181,0-.363,0-.544,0-.549-.025-.655-.129-.677-.685a3.459,3.459,0,0,0-.133-1.123A2.371,2.371,0,0,0,31.106,1.7c-2.7-.008-5.409,0-8.114,0-1.121,0-2.243.019-3.364,0a2.4,2.4,0,0,0-2.564,2.517c.042.767-.079.851-.848.851-4.4,0-8.807.016-13.21-.008A2.633,2.633,0,0,0,.263,6.742C.215,6.858.175,7,0,6.994V8.083A3.116,3.116,0,0,0,1.581,9.8c.195.074.1.294.1.447q.008,3.266,0,6.531,0,11.207,0,22.415a2.593,2.593,0,0,0,2.891,2.9c6.431,0,12.862.008,19.293-.014.536,0,.65.157.626.651-.04.839-.015,1.682-.008,2.523a.371.371,0,0,1-.24.418,3.318,3.318,0,0,0-2.278,3.434,3.357,3.357,0,0,0,2.61,3.046c.024,0,.04.046.06.071h1.286c.033-.262.27-.258.441-.324M19.793,3.236h11.13c.957,0,1.393.584,1.161,1.53-.066.268-.26.15-.393.151-1.781.009-3.561.006-5.342.006H25.309c-2.094,0-4.188-.012-6.282.011-.385,0-.457-.108-.449-.465.023-1,.236-1.232,1.215-1.232M2.5,8.293a.832.832,0,0,1-.812-.777.851.851,0,0,1,.7-.884,2.663,2.663,0,0,1,.493-.021q22.453,0,44.905,0a2.31,2.31,0,0,1,.539.039A.831.831,0,0,1,48.2,8.291c-.18.016-.362.008-.544.008H3c-.165,0-.33.006-.494-.005m2.1,32.113c-.99,0-1.232-.242-1.232-1.221q0-14.326-.012-28.652c0-.471.14-.554.574-.554q10.711.02,21.422.009,10.686,0,21.372-.009c.426,0,.578.072.577.55q-.025,14.326-.012,28.652c0,.98-.244,1.225-1.23,1.225H4.606M25.284,50.537a1.693,1.693,0,0,1-1.632-1.751,1.683,1.683,0,0,1,3.365.1,1.692,1.692,0,0,1-1.732,1.652" transform="translate(-0.001 -1.529)" fill="#636363"/>
        <path id="Trazado_194972" data-name="Trazado 194972" d="M25.95,50.657A3.406,3.406,0,0,0,28.7,47.631a3.341,3.341,0,0,0-2.278-3.483.368.368,0,0,1-.239-.417c.006-.841.032-1.684-.008-2.523-.023-.494.09-.654.626-.652,6.447.022,12.893.012,19.34.017a2.794,2.794,0,0,0,2.008-.669,2.723,2.723,0,0,0,.841-2.134q-.011-14.5-.01-28.992a.606.606,0,0,1,.364-.647,2.37,2.37,0,0,0,1.321-2.114A2.522,2.522,0,0,0,48.047,3.4c-4.551-.007-9.1-.011-13.652.01-.51,0-.649-.119-.641-.637A2.508,2.508,0,0,0,30.99.021C27.247.021,23.5.064,19.762,0a2.634,2.634,0,0,0-2.857,2.88c.042.472-.145.523-.549.522Q9.6,3.382,2.853,3.4a4.262,4.262,0,0,0-.738.044A2.639,2.639,0,0,0,0,5.465c.174.007.214-.136.262-.252A2.634,2.634,0,0,1,3,3.529c4.4.024,8.807.011,13.21.008.769,0,.891-.084.848-.851A2.4,2.4,0,0,1,19.626.169c1.121.023,2.243,0,3.364,0,2.7,0,5.409-.005,8.114,0a2.371,2.371,0,0,1,2.359,1.551A3.465,3.465,0,0,1,33.6,2.85c.022.556.128.66.677.685.181.008.363,0,.544,0H47.682a3.4,3.4,0,0,1,1.079.107,2.352,2.352,0,0,1,1.7,1.883,2.112,2.112,0,0,1-.893,2.26,1.6,1.6,0,0,0-.744,1.527q.024,14.055.011,28.109c0,.2,0,.4,0,.594a2.389,2.389,0,0,1-2.02,2.345,6.368,6.368,0,0,1-1.182.088q-9.153,0-18.306,0c-.2,0-.4-.006-.594,0-.521.027-.635.131-.648.66-.02.791,0,1.584-.01,2.375a.872.872,0,0,0,.586.924,2.721,2.721,0,0,1,1.107.808,3.223,3.223,0,0,1-1.4,5.153c-.171.066-.408.062-.441.324.008-.015.013-.039.024-.042" transform="translate(0 0)" fill="#636363"/>
        <path id="Trazado_194973" data-name="Trazado 194973" d="M101,108.4c.1-.978.047-1.959.1-3.036.375.382.677.7.993,1.008a.846.846,0,1,0,1.211-1.169q-1.194-1.219-2.413-2.414a.837.837,0,0,0-1.305,0q-1.218,1.2-2.413,2.414a.842.842,0,0,0-.055,1.234.825.825,0,0,0,1.229-.034c.329-.315.635-.653,1.031-1.064a21.3,21.3,0,0,1-.473,5.5,17.774,17.774,0,0,1-16.619,13.579c-2.373.043-4.748.008-7.122.028-.309,0-.41-.122-.511-.378a3.365,3.365,0,0,0-3.736-2.1,3.372,3.372,0,0,0,.058,6.645,3.315,3.315,0,0,0,3.67-2.107.523.523,0,0,1,.607-.391c2.077.012,4.155,0,6.232.007A19.461,19.461,0,0,0,101,108.4M71.5,126.98a1.711,1.711,0,0,1-1.666-1.728,1.683,1.683,0,0,1,1.689-1.64,1.658,1.658,0,0,1,1.68,1.69,1.683,1.683,0,0,1-1.7,1.678" transform="translate(-61.393 -92.328)" fill="#636363"/>
        <path id="Trazado_194974" data-name="Trazado 194974" d="M156.064,184.312a2.529,2.529,0,0,0,2.556-2.526,2.556,2.556,0,0,0-2.564-2.531,2.527,2.527,0,0,0-2.492,2.54,2.5,2.5,0,0,0,2.5,2.517m0-3.37a.874.874,0,0,1,.868.838.842.842,0,0,1-.8.841.811.811,0,0,1-.878-.8.843.843,0,0,1,.811-.88" transform="translate(-138.352 -161.498)" fill="#636363"/>
        <path id="Trazado_194975" data-name="Trazado 194975" d="M318.081,315.8a2.528,2.528,0,0,0-.019,5.056,2.528,2.528,0,1,0,.019-5.056m-.045,3.371a.845.845,0,0,1-.8-.843.818.818,0,0,1,.842-.84.845.845,0,0,1,.838.857.871.871,0,0,1-.88.826" transform="translate(-284.293 -284.522)" fill="#636363"/>
        <path id="Trazado_194976" data-name="Trazado 194976" d="M207.17,133.187a2.528,2.528,0,1,0-2.469-2.551,2.524,2.524,0,0,0,2.469,2.551m.079-3.369a.861.861,0,0,1,.819.87.842.842,0,0,1-.869.812.824.824,0,0,1-.811-.861.843.843,0,0,1,.861-.821" transform="translate(-184.424 -115.439)" fill="#636363"/>
        <path id="Trazado_194977" data-name="Trazado 194977" d="M403.664,273.277a.808.808,0,0,0-1.188.034c-.184.169-.276.175-.467.006a.808.808,0,0,0-1.191-.026.8.8,0,0,0,0,1.188c.194.21.176.307-.009.5a.83.83,0,0,0,1.134,1.212c.229-.214.359-.24.588-.007a.742.742,0,0,0,.913.121.809.809,0,0,0,.469-.751.713.713,0,0,0-.236-.578c-.208-.186-.188-.305,0-.51a.821.821,0,0,0-.007-1.192" transform="translate(-360.861 -245.988)" fill="#636363"/>
        <path id="Trazado_194978" data-name="Trazado 194978" d="M224.479,239a.745.745,0,0,0-.914.1c-.226.211-.368.258-.624.017a.775.775,0,0,0-1.11.034.786.786,0,0,0-.039,1.147c.234.247.183.368-.017.589a.813.813,0,0,0,.029,1.153.8.8,0,0,0,1.151.009c.235-.223.362-.217.587,0a.743.743,0,0,0,.913.117.834.834,0,0,0,.471-.754c.014-.347-.36-.545-.391-.809-.034-.282.437-.469.409-.707a.927.927,0,0,0-.465-.9" transform="translate(-199.604 -215.227)" fill="#636363"/>
        <path id="Trazado_194979" data-name="Trazado 194979" d="M395.3,333.285a.824.824,0,0,0-.756-.463c-.379-.015-.579.418-.841.412s-.464-.443-.811-.4a.814.814,0,0,0-.775.478.77.77,0,0,0,.108.876c.215.227.266.366.012.62a.829.829,0,0,0,1.183,1.161c.216-.2.326-.248.565-.015a.828.828,0,0,0,1.168-1.173c-.247-.254-.156-.375.034-.581a.765.765,0,0,0,.115-.916" transform="translate(-353.175 -299.854)" fill="#636363"/>
        <path id="Trazado_194980" data-name="Trazado 194980" d="M273.066,173.87a.8.8,0,0,0,1.188-.036c.224-.212.321-.132.5.031a.81.81,0,0,0,1.156-.01.8.8,0,0,0,.027-1.153c-.238-.25-.162-.372.022-.587a.827.827,0,0,0-1.155-1.174c-.24.211-.376.239-.628,0a.749.749,0,0,0-1.038-.013.767.767,0,0,0-.238,1.013,3.166,3.166,0,0,0,.361.477c-.057.066-.122.14-.185.215a.839.839,0,0,0-.016,1.232" transform="translate(-245.782 -153.819)" fill="#636363"/>
        <path id="Trazado_194981" data-name="Trazado 194981" d="M412.365,205.43a.817.817,0,0,0-.76-.457c-.356-.008-.544.378-.8.394-.275.016-.467-.434-.766-.395a.836.836,0,0,0-.828.468.758.758,0,0,0,.116.915c.221.223.23.351,0,.585a.83.83,0,0,0,1.165,1.18c.207-.188.316-.277.567-.028a.828.828,0,0,0,1.178-1.162c-.235-.246-.178-.368.024-.581a.759.759,0,0,0,.106-.918" transform="translate(-368.566 -184.666)" fill="#636363"/>
        <path id="Trazado_194982" data-name="Trazado 194982" d="M154.777,267.725c.236-.226.36-.21.577.008a.764.764,0,0,0,.918.116.834.834,0,0,0,.467-.76.734.734,0,0,0-.186-.5c-.276-.231-.249-.39,0-.652a.779.779,0,0,0-.056-1.112.812.812,0,0,0-1.153-.009c-.21.194-.322.222-.548.01a.827.827,0,0,0-1.178,1.161c.191.212.227.324.006.549a.811.811,0,0,0,0,1.189.792.792,0,0,0,1.152,0" transform="translate(-138.172 -238.374)" fill="#636363"/>
        <path id="Trazado_194983" data-name="Trazado 194983" d="M119.649,131.319a.812.812,0,0,0,1.191,0c.195-.18.289-.206.5-.01a.8.8,0,0,0,1.188,0,.821.821,0,0,0,0-1.159c-.171-.192-.218-.294-.017-.509a.817.817,0,0,0-.007-1.192.828.828,0,0,0-1.2.031c-.074.062-.146.128-.221.194l-.154-.138c-.457-.407-.909-.434-1.268-.077a.83.83,0,0,0,.049,1.228c.186.207.084.285-.042.433a.841.841,0,0,0-.026,1.2" transform="translate(-107.583 -115.508)" fill="#636363"/>
        <path id="Trazado_194984" data-name="Trazado 194984" d="M85.536,199.572a.8.8,0,0,0,1.114.04c.239-.221.379-.237.626-.01a.8.8,0,0,0,1.113-.039.791.791,0,0,0,.053-1.112c-.278-.282-.179-.418.027-.666a.757.757,0,0,0-.011-1,.8.8,0,0,0-.973-.265,2.051,2.051,0,0,0-.517.394c-.061-.053-.121-.106-.182-.158a.85.85,0,0,0-1.234-.063.806.806,0,0,0,.026,1.222c.253.261.04.347-.081.5a.831.831,0,0,0,.037,1.159" transform="translate(-76.835 -176.995)" fill="#636363"/>
      </g>
    </g>
    <g id="Grupo_871892" data-name="Grupo 871892" transform="translate(695.12 3632.18)">
      <g id="Grupo_871891" data-name="Grupo 871891" transform="translate(0)" clip-path="url(#clip-path-30)">
        <path id="Trazado_194985" data-name="Trazado 194985" d="M118.841.351a3.422,3.422,0,0,0-1.958,1.79,1.06,1.06,0,0,1-1.151.679,3.225,3.225,0,0,0-2.74,1.327,3.246,3.246,0,0,0-.37,3.457,3.122,3.122,0,0,0,2.928,1.944q4.45.082,8.9,0A3.214,3.214,0,0,0,127.519,7.5a3.21,3.21,0,0,0-.545-3.517,3.211,3.211,0,0,0-2.577-1.16,1.162,1.162,0,0,1-1.246-.782A3.312,3.312,0,0,0,121.01.265c-.154-.049-.387,0-.408-.265h-1.287c-.034.282-.291.281-.474.351M119.857,2a1.687,1.687,0,0,1,1.759,1.082,2.589,2.589,0,0,1,.114.528c.115.779.417,1.043,1.219,1.047.462,0,.924,0,1.386,0a1.526,1.526,0,1,1,.027,3.049c-1.435.013-2.871,0-4.307,0-1.4,0-2.8,0-4.207,0a1.538,1.538,0,1,1,.027-3.053c.446,0,.891,0,1.336,0a.989.989,0,0,0,1.131-1.021A1.731,1.731,0,0,1,119.857,2" transform="translate(-101.164)" fill="#636363"/>
        <path id="Trazado_194986" data-name="Trazado 194986" d="M117.719.187A3.366,3.366,0,0,0,115.6,2.062c-.216.523-.479.713-1,.62a.755.755,0,0,0-.148,0A3.493,3.493,0,0,0,110.994,6.1a3.433,3.433,0,0,0,3.34,3.573c3.033.054,6.068.046,9.1,0a3.415,3.415,0,0,0,3.231-2.658,3.5,3.5,0,0,0-1.685-3.881,3.857,3.857,0,0,0-2.194-.449c-.275.017-.39-.073-.493-.335A3.617,3.617,0,0,0,119.922.146c-.161-.052-.371.047-.486-.146.022.262.255.217.408.265a3.312,3.312,0,0,1,2.142,1.778,1.162,1.162,0,0,0,1.246.782,3.211,3.211,0,0,1,2.577,1.16,3.21,3.21,0,0,1,.545,3.517,3.214,3.214,0,0,1-3.069,2.048q-4.45.078-8.9,0a3.122,3.122,0,0,1-2.928-1.944,3.246,3.246,0,0,1,.37-3.457,3.225,3.225,0,0,1,2.741-1.327,1.06,1.06,0,0,0,1.151-.679,3.422,3.422,0,0,1,1.958-1.79c.182-.071.439-.07.474-.351-.1.165-.285.135-.43.187" transform="translate(-99.999)" fill="#636363"/>
        <path id="Trazado_194987" data-name="Trazado 194987" d="M35.16,52.372c-.643-.025-1.287-.007-1.93-.008H29.22a1.036,1.036,0,0,0-1.051.592.986.986,0,0,0,1.012,1.384c1.865.012,3.729,0,5.594,0,.883,0,1.006.121,1.006.992q0,19.776,0,39.553c0,.88-.119,1-.991,1H3.008c-.933,0-1.027-.092-1.027-1.011q0-8.985,0-17.97,0-10.841,0-21.682c0-.727.147-.877.864-.881s1.452,0,2.178,0c1.188,0,2.376.009,3.564,0a.968.968,0,0,0,1.079-1.016c-.018-.589-.435-.954-1.146-.957q-2.921-.012-5.842,0a3.092,3.092,0,0,0-.829.112A2.549,2.549,0,0,0,0,55.144q0,9.975,0,19.949,0,10,0,20a2.568,2.568,0,0,0,2.723,2.777q16.163,0,32.326,0a2.565,2.565,0,0,0,2.708-2.7q0-20.049,0-40.1a2.553,2.553,0,0,0-2.6-2.7" transform="translate(0 -47.172)" fill="#636363"/>
        <path id="Trazado_194988" data-name="Trazado 194988" d="M185.311,177.416a2.794,2.794,0,0,0,.637.055q2.523.006,5.045,0c1.814,0,3.627.009,5.441-.005a.992.992,0,1,0-.016-1.974c-.1,0-.2,0-.3,0q-5.07,0-10.139,0a3.6,3.6,0,0,0-.591.031.97.97,0,0,0-.08,1.89" transform="translate(-166.31 -158.109)" fill="#636363"/>
        <path id="Trazado_194989" data-name="Trazado 194989" d="M196.349,368.829q-2.646,0-5.293,0-2.622,0-5.243,0c-.746,0-1.215.4-1.2,1,.011.59.472.974,1.187.974q5.268,0,10.536,0c.743,0,1.214-.4,1.2-1.006-.011-.593-.467-.971-1.186-.972" transform="translate(-166.322 -332.293)" fill="#636363"/>
        <path id="Trazado_194990" data-name="Trazado 194990" d="M197.457,272.648a1.011,1.011,0,0,0-.972-.56q-5.392,0-10.783,0a1.253,1.253,0,0,0-.386.067.956.956,0,0,0-.667,1.031.967.967,0,0,0,.872.866,4.674,4.674,0,0,0,.494.013h5.095c1.764,0,3.528,0,5.293,0a1.072,1.072,0,0,0,.96-.4.93.93,0,0,0,.094-1.025" transform="translate(-166.352 -245.136)" fill="#636363"/>
        <path id="Trazado_194991" data-name="Trazado 194991" d="M77.725,345.688a1.155,1.155,0,0,0-.85.434c-1.163,1.167-2.334,2.325-3.489,3.5-.2.2-.314.258-.529.012-.336-.383-.708-.735-1.079-1.086a.986.986,0,1,0-1.4,1.388c.667.684,1.349,1.352,2.025,2.028a.917.917,0,0,0,.708.294,1.089,1.089,0,0,0,.854-.419q2.164-2.169,4.331-4.334a1.753,1.753,0,0,0,.257-.3.953.953,0,0,0,.026-1.029.934.934,0,0,0-.856-.487" transform="translate(-63.114 -311.446)" fill="#636363"/>
        <path id="Trazado_194992" data-name="Trazado 194992" d="M71.73,154.8a.905.905,0,0,0-1.058-.147.977.977,0,0,0-.562,1,.966.966,0,0,0,.342.649c.642.641,1.278,1.289,1.927,1.923a1,1,0,0,0,1.594-.015q2.229-2.216,4.446-4.445a1.1,1.1,0,0,0,.331-.538.99.99,0,0,0-.467-1.1.976.976,0,0,0-1.253.234c-1.183,1.174-2.366,2.348-3.531,3.54-.247.253-.389.314-.648.014A12.97,12.97,0,0,0,71.73,154.8" transform="translate(-63.165 -136.933)" fill="#636363"/>
        <path id="Trazado_194993" data-name="Trazado 194993" d="M78.69,249.424a.922.922,0,0,0-.82-.62,1.092,1.092,0,0,0-.914.4c-1.173,1.182-2.361,2.35-3.525,3.54-.229.234-.356.234-.571,0-.354-.39-.733-.759-1.12-1.118a.934.934,0,0,0-1.1-.158,1.009,1.009,0,0,0-.556,1.016,1.058,1.058,0,0,0,.395.671c.608.6,1.212,1.213,1.821,1.816a1.039,1.039,0,0,0,1.7-.009q1.49-1.483,2.974-2.972c.5-.5,1.009-1,1.5-1.505a.956.956,0,0,0,.213-1.055" transform="translate(-63.14 -224.154)" fill="#636363"/>
      </g>
    </g>
    <g id="Grupo_871894" data-name="Grupo 871894" transform="translate(516.653 3632.18)">
      <g id="Grupo_871893" data-name="Grupo 871893" clip-path="url(#clip-path-31)">
        <path id="Trazado_194994" data-name="Trazado 194994" d="M38.43,117.181a4.864,4.864,0,0,0-2.859-.774.551.551,0,0,1-.595-.374c-.188-.433-.412-.849-.647-1.326H47.042a3.449,3.449,0,0,0,3.028-1.46,10.125,10.125,0,0,0,.624-1.2V81.155c-.261-.032-.261-.269-.329-.44A3.228,3.228,0,0,0,47.2,78.539q-4.332,0-8.663,0a2.571,2.571,0,0,0-.592.036.6.6,0,0,0-.532.565.634.634,0,0,0,.446.69,2.127,2.127,0,0,0,.783.078q4.208,0,8.416,0a2.012,2.012,0,0,1,1.5.526,1.866,1.866,0,0,1,.6,1.313c.008.214.007.429.007.644,0,9.407-.019,18.813.015,28.22.007,2.1-1.039,2.594-2.6,2.593Q25.342,113.185,4.1,113.2a4.748,4.748,0,0,1-.985-.076,1.867,1.867,0,0,1-1.579-1.779c-.016-.181-.014-.363-.014-.544q0-14.308,0-28.616a2.216,2.216,0,0,1,.515-1.651,2.061,2.061,0,0,1,1.606-.623q4.183.01,8.366,0a2.834,2.834,0,0,0,.69-.04.652.652,0,0,0,.577-.692c-.013-.41-.279-.569-.641-.62a3.878,3.878,0,0,0-.544-.018q-4.282,0-8.564,0a3.235,3.235,0,0,0-3.154,2.05c-.085.183-.1.433-.376.469v30.993c.107.013.115.108.136.18A3.47,3.47,0,0,0,3.7,114.711c4.025-.015,8.05,0,12.074,0h.591c-.265.537-.512,1.015-.737,1.5-.1.223-.281.184-.456.187a5.007,5.007,0,0,0-2.866.76,2.955,2.955,0,0,0-1.3,2.819,1.781,1.781,0,0,0,1.268,1.481H38.417a2.443,2.443,0,0,0,.013-4.275M18.2,114.837c.112-.225.32-.126.483-.126q5.519-.009,11.038,0c.792,0,1.584.009,2.376-.005a.444.444,0,0,1,.49.3c.2.449.431.882.684,1.389H17.427l.772-1.548m19.461,4.941c-1.22-.021-2.441-.008-3.661-.008H25.34c-4.074,0-8.148-.007-12.221.01-.431,0-.5-.122-.388-.5a1.5,1.5,0,0,1,1.067-1,4.642,4.642,0,0,1,1.513-.194H35.4a4.016,4.016,0,0,1,1.83.33,1.38,1.38,0,0,1,.765.974c.068.295,0,.4-.333.391" transform="translate(0 -70.757)" fill="#636363"/>
        <path id="Trazado_194995" data-name="Trazado 194995" d="M.376,79.059a3.235,3.235,0,0,1,3.154-2.05q4.282.008,8.564,0a3.877,3.877,0,0,1,.544.018c.362.051.628.21.641.62a.652.652,0,0,1-.577.692,2.829,2.829,0,0,1-.69.04q-4.183,0-8.366,0A2.06,2.06,0,0,0,2.04,79a2.216,2.216,0,0,0-.515,1.651q.005,14.308,0,28.616c0,.182,0,.363.013.544a1.867,1.867,0,0,0,1.579,1.779,4.748,4.748,0,0,0,.985.076q21.237,0,42.475.007c1.564,0,2.611-.5,2.6-2.593-.034-9.406-.015-18.813-.015-28.22,0-.214,0-.429-.007-.643a1.866,1.866,0,0,0-.6-1.313,2.012,2.012,0,0,0-1.5-.526q-4.208.005-8.416,0a2.127,2.127,0,0,1-.783-.078.634.634,0,0,1-.446-.69.6.6,0,0,1,.532-.565,2.57,2.57,0,0,1,.592-.036q4.332,0,8.663,0a3.228,3.228,0,0,1,3.164,2.175c.068.171.068.407.329.44-.025-.018-.066-.03-.073-.053a3.369,3.369,0,0,0-3.7-2.731H38.411a3.179,3.179,0,0,0-.494.016.768.768,0,0,0-.715.755.78.78,0,0,0,.587.858,1.777,1.777,0,0,0,.587.057q4.331,0,8.662,0A1.732,1.732,0,0,1,49.008,80.5q0,14.5,0,29.008a2.879,2.879,0,0,1-.051.638c-.2.89-.871,1.336-1.979,1.336H3.715c-.082,0-.165,0-.247,0a1.708,1.708,0,0,1-1.779-1.829Q1.683,95,1.689,80.351a1.688,1.688,0,0,1,1.823-1.818c1.386-.007,2.772,0,4.158,0,1.617,0,3.234.006,4.851,0,.62,0,.993-.351.982-.868a.826.826,0,0,0-.925-.814c-3.085-.005-6.171-.01-9.256.006a3.188,3.188,0,0,0-2.742,1.5A9.539,9.539,0,0,0,0,79.528c.275-.035.291-.286.376-.469" transform="translate(0 -69.23)" fill="#636363"/>
        <path id="Trazado_194996" data-name="Trazado 194996" d="M124.744.332a1.838,1.838,0,0,0-.87,1.263c-.116.6-.248,1.2-.358,1.8a.864.864,0,0,1-.6.715c-.432.161-.867.322-1.282.524a.817.817,0,0,1-.883-.082c-.507-.34-1.013-.682-1.524-1.015a1.67,1.67,0,0,0-2.149.075,8.53,8.53,0,0,0-1.457,1.475,1.651,1.651,0,0,0-.079,1.986c.35.559.723,1.1,1.1,1.649a.763.763,0,0,1,.079.833c-.214.446-.38.914-.562,1.374a.778.778,0,0,1-.612.509c-.629.135-1.27.21-1.894.367a1.69,1.69,0,0,0-1.431,1.8c0,.561-.013,1.122,0,1.683a1.609,1.609,0,0,0,1.336,1.616c.628.138,1.258.273,1.889.4a.893.893,0,0,1,.773.661,6.714,6.714,0,0,0,.487,1.189.8.8,0,0,1-.06.883c-.356.536-.717,1.069-1.069,1.607a1.667,1.667,0,0,0,.139,2.139,16.59,16.59,0,0,0,1.293,1.3,1.657,1.657,0,0,0,2.178.17q.794-.5,1.564-1.044a.809.809,0,0,1,.963-.073,5.543,5.543,0,0,0,1.189.486.828.828,0,0,1,.61.7c.121.632.228,1.267.388,1.89a1.64,1.64,0,0,0,1.78,1.384c.561,0,1.122.012,1.683,0a1.616,1.616,0,0,0,1.623-1.329c.146-.627.255-1.261.387-1.891a.923.923,0,0,1,.714-.79,5.008,5.008,0,0,0,1.141-.472.732.732,0,0,1,.833.05q.776.53,1.565,1.043A1.7,1.7,0,0,0,136,24.966q.537-.513,1.05-1.05a1.72,1.72,0,0,0,.233-2.375c-.34-.527-.69-1.047-1.042-1.566a.734.734,0,0,1-.05-.834,5.76,5.76,0,0,0,.489-1.188.871.871,0,0,1,.76-.675c.617-.107,1.231-.235,1.844-.367a1.624,1.624,0,0,0,1.389-1.673q.017-.891,0-1.782a1.607,1.607,0,0,0-1.229-1.6c-.667-.19-1.354-.293-2.033-.428a.833.833,0,0,1-.708-.6,7.965,7.965,0,0,0-.493-1.187.886.886,0,0,1,.1-1.009c.345-.483.67-.981.99-1.481a1.669,1.669,0,0,0-.121-2.185,9.676,9.676,0,0,0-1.366-1.36,1.662,1.662,0,0,0-2.1-.1c-.538.353-1.094.677-1.622,1.045a.786.786,0,0,1-.836.084,4.107,4.107,0,0,0-.775-.324,1.392,1.392,0,0,1-1.2-1.407c-.034-.424-.169-.84-.244-1.262A1.855,1.855,0,0,0,128.1.306C127.984.237,127.808.2,127.83,0h-2.772c.015.221-.186.252-.313.332m.62,1.717c.048-.263.138-.412.445-.369a4.989,4.989,0,0,0,.692.006c.953,0,.951,0,1.132.963.088.469.193.935.284,1.4a1.727,1.727,0,0,0,1.181,1.4,17.54,17.54,0,0,1,1.777.731,1.745,1.745,0,0,0,1.825-.147c.563-.373,1.131-.739,1.682-1.129.225-.159.373-.2.575.039a8.656,8.656,0,0,0,.908.91c.237.2.195.355.038.577-.38.538-.733,1.094-1.1,1.639a1.826,1.826,0,0,0-.155,1.914c.252.552.485,1.115.695,1.685a1.775,1.775,0,0,0,1.42,1.222c.647.123,1.289.271,1.938.382.3.052.459.144.43.493a8.8,8.8,0,0,0,0,1.286c.016.263-.1.342-.323.385-.663.124-1.322.275-1.986.391a1.782,1.782,0,0,0-1.488,1.273,11.931,11.931,0,0,1-.659,1.593,1.832,1.832,0,0,0,.152,2c.376.541.725,1.1,1.105,1.639a.339.339,0,0,1-.051.536c-.331.3-.645.616-.945.944a.317.317,0,0,1-.5.044c-.54-.378-1.1-.725-1.64-1.1a1.825,1.825,0,0,0-2-.175,14.447,14.447,0,0,1-1.686.694,1.74,1.74,0,0,0-1.186,1.395c-.131.662-.278,1.321-.393,1.986-.051.3-.17.411-.482.388a8.022,8.022,0,0,0-1.236,0c-.3.024-.4-.1-.448-.368-.12-.664-.266-1.323-.391-1.987a1.746,1.746,0,0,0-1.219-1.422,14.093,14.093,0,0,1-1.685-.7,1.8,1.8,0,0,0-1.953.171c-.542.375-1.1.725-1.639,1.1-.208.146-.351.168-.536-.041a10.674,10.674,0,0,0-.907-.911.358.358,0,0,1-.066-.573c.385-.534.733-1.095,1.106-1.638a1.808,1.808,0,0,0,.155-1.957,14.059,14.059,0,0,1-.693-1.686,1.744,1.744,0,0,0-1.431-1.206c-.647-.121-1.289-.274-1.938-.383-.293-.049-.427-.139-.4-.467.038-.525-.166-1.186.084-1.543s.969-.265,1.479-.379c.289-.065.58-.122.87-.185a1.693,1.693,0,0,0,1.321-1.135,19.669,19.669,0,0,1,.749-1.823,1.749,1.749,0,0,0-.159-1.824c-.375-.562-.74-1.131-1.133-1.679a.359.359,0,0,1,.062-.575c.321-.283.609-.6.915-.9.078-.077.135-.192.293-.194.081.052.178.113.273.176.548.365,1.1.729,1.644,1.1a1.784,1.784,0,0,0,1.913.137,15.763,15.763,0,0,1,1.732-.711,1.709,1.709,0,0,0,1.158-1.358c.136-.678.277-1.355.4-2.035" transform="translate(-101.096)" fill="#636363"/>
        <path id="Trazado_194997" data-name="Trazado 194997" d="M122.471,1.915c-.04.342-.171.676-.191,1.018a1.169,1.169,0,0,1-1.057,1.232,2.631,2.631,0,0,0-.807.358.607.607,0,0,1-.756-.064c-.546-.4-1.114-.763-1.684-1.125a1.719,1.719,0,0,0-2.216.208q-.682.647-1.331,1.328a1.74,1.74,0,0,0-.217,2.219,8.7,8.7,0,0,0,.713,1.067,1.436,1.436,0,0,1,.194,2,1.934,1.934,0,0,0-.256.69.528.528,0,0,1-.5.445c-.682.11-1.359.254-2.036.4a1.738,1.738,0,0,0-1.441,1.749q-.012.94,0,1.881a1.719,1.719,0,0,0,1.373,1.7,8.791,8.791,0,0,0,1.4.28,1.3,1.3,0,0,1,1.409,1.173,2.33,2.33,0,0,0,.351.757.535.535,0,0,1-.055.668c-.375.521-.72,1.064-1.073,1.6a1.776,1.776,0,0,0,.261,2.488c.371.375.742.752,1.119,1.121a1.742,1.742,0,0,0,2.369.247c.568-.365,1.137-.729,1.69-1.116a.512.512,0,0,1,.621-.059,6.245,6.245,0,0,0,1.412.578.515.515,0,0,1,.408.477c.115.665.257,1.325.391,1.987a1.726,1.726,0,0,0,1.794,1.5q.891.008,1.782,0a1.714,1.714,0,0,0,1.775-1.46c.14-.66.283-1.32.4-1.985a.586.586,0,0,1,.474-.534,6.166,6.166,0,0,0,1.361-.573.479.479,0,0,1,.58.038c.578.409,1.17.8,1.765,1.182a1.714,1.714,0,0,0,2.218-.185q.7-.662,1.365-1.364a1.725,1.725,0,0,0,.216-2.18,10.668,10.668,0,0,0-.853-1.27,1.2,1.2,0,0,1-.134-1.658,2.769,2.769,0,0,0,.329-.873.549.549,0,0,1,.513-.432c.682-.115,1.359-.254,2.035-.4a1.715,1.715,0,0,0,1.413-1.718c.008-.61.007-1.221,0-1.831a1.737,1.737,0,0,0-1.5-1.8c-.661-.136-1.322-.275-1.985-.4a.522.522,0,0,1-.481-.405,6.27,6.27,0,0,0-.583-1.409.508.508,0,0,1,.054-.623c.411-.576.8-1.169,1.181-1.766a1.707,1.707,0,0,0-.2-2.178c-.44-.469-.9-.923-1.364-1.366a1.726,1.726,0,0,0-2.218-.2,9.8,9.8,0,0,0-1.151.766,1.307,1.307,0,0,1-1.83.165,1.642,1.642,0,0,0-.6-.22.723.723,0,0,1-.648-.726c-.036-.472-.205-.933-.265-1.405A2.151,2.151,0,0,0,126.632,0c-.022.2.155.237.271.306a1.854,1.854,0,0,1,.924,1.337c.074.422.21.838.244,1.262a1.392,1.392,0,0,0,1.2,1.407,4.1,4.1,0,0,1,.775.324.786.786,0,0,0,.836-.084c.528-.368,1.084-.692,1.622-1.045a1.662,1.662,0,0,1,2.105.1,9.687,9.687,0,0,1,1.366,1.36,1.669,1.669,0,0,1,.121,2.185c-.32.5-.645,1-.99,1.481a.886.886,0,0,0-.1,1.009,7.955,7.955,0,0,1,.493,1.187.833.833,0,0,0,.708.6c.679.135,1.366.238,2.033.428a1.607,1.607,0,0,1,1.229,1.6q.017.891,0,1.782a1.624,1.624,0,0,1-1.389,1.673c-.613.132-1.227.26-1.844.367a.871.871,0,0,0-.76.675,5.768,5.768,0,0,1-.489,1.188.735.735,0,0,0,.05.834c.352.519.7,1.039,1.042,1.566a1.72,1.72,0,0,1-.232,2.375q-.513.536-1.05,1.05a1.7,1.7,0,0,1-2.37.227q-.79-.511-1.565-1.043a.732.732,0,0,0-.833-.05,5,5,0,0,1-1.141.472.923.923,0,0,0-.714.79c-.132.63-.241,1.264-.387,1.891a1.616,1.616,0,0,1-1.623,1.33c-.561.015-1.122.006-1.683,0A1.64,1.64,0,0,1,122.7,27.2c-.16-.623-.267-1.259-.388-1.89a.828.828,0,0,0-.61-.7,5.535,5.535,0,0,1-1.189-.486.81.81,0,0,0-.963.073q-.769.541-1.564,1.044a1.657,1.657,0,0,1-2.178-.169,16.638,16.638,0,0,1-1.293-1.3,1.667,1.667,0,0,1-.139-2.139c.352-.538.713-1.072,1.069-1.607a.8.8,0,0,0,.06-.883,6.723,6.723,0,0,1-.487-1.189.893.893,0,0,0-.773-.661c-.631-.124-1.26-.258-1.888-.4a1.609,1.609,0,0,1-1.336-1.616c-.016-.561-.006-1.122,0-1.683a1.691,1.691,0,0,1,1.431-1.8c.625-.157,1.265-.231,1.894-.367a.778.778,0,0,0,.612-.509c.182-.46.348-.928.562-1.374a.763.763,0,0,0-.079-.833c-.372-.545-.746-1.089-1.1-1.649a1.651,1.651,0,0,1,.079-1.986,8.531,8.531,0,0,1,1.458-1.475,1.67,1.67,0,0,1,2.149-.075c.512.333,1.018.674,1.524,1.015a.816.816,0,0,0,.882.081c.415-.2.85-.363,1.282-.524a.864.864,0,0,0,.6-.715c.11-.6.241-1.2.358-1.8a1.838,1.838,0,0,1,.87-1.262c.127-.08.328-.111.313-.332a2.151,2.151,0,0,0-1.389,1.915" transform="translate(-99.899)" fill="#636363"/>
        <path id="Trazado_194998" data-name="Trazado 194998" d="M36.761,135.4c-.715,0-1.031-.314-1.032-1.025q-.007-10.372,0-20.745c0-.712.326-1.027,1.031-1.034.743-.007,1.485.006,2.228,0a.849.849,0,1,0,0-1.682c-.693-.01-1.386,0-2.079,0a2.587,2.587,0,0,0-2.873,2.874q0,5.4,0,10.793,0,4.877,0,9.754a2.658,2.658,0,0,0,1.1,2.311,2.981,2.981,0,0,0,1.835.458q9.53,0,19.06,0,9.48,0,18.961,0a4.624,4.624,0,0,0,1.08-.088,2.546,2.546,0,0,0,1.913-2.663q.005-7.947,0-15.893c0-1.6.005-3.2,0-4.8a2.554,2.554,0,0,0-2.711-2.738c-.71-.006-1.419,0-2.129,0-.674,0-1.07.311-1.079.83s.406.853,1.106.855c.627,0,1.254,0,1.881,0,1,0,1.244.254,1.245,1.27q0,10.075,0,20.151c0,1.186-.2,1.387-1.368,1.387H40.919c-1.386,0-2.772.006-4.158,0" transform="translate(-30.665 -99.917)" fill="#636363"/>
        <path id="Trazado_194999" data-name="Trazado 194999" d="M214.4,392.465a2.416,2.416,0,0,0-.588-.048c-1.285,0-2.569,0-3.854,0s-2.569,0-3.854,0a2.9,2.9,0,0,0-.54.039.818.818,0,0,0-.051,1.592,2.365,2.365,0,0,0,.586.059q3.854.005,7.708,0a2.178,2.178,0,0,0,.633-.069.82.82,0,0,0-.041-1.572" transform="translate(-184.61 -353.544)" fill="#636363"/>
        <path id="Trazado_195000" data-name="Trazado 195000" d="M187.782,83.621a6.746,6.746,0,1,0,6.757-6.737,6.728,6.728,0,0,0-6.757,6.737m6.83-5.049A5.059,5.059,0,1,1,189.47,83.6a5.073,5.073,0,0,1,5.142-5.025" transform="translate(-169.181 -69.268)" fill="#636363"/>
        <path id="Trazado_195001" data-name="Trazado 195001" d="M248.347,138.336a.828.828,0,0,0,.84-.842.828.828,0,0,0-1.655.024.826.826,0,0,0,.815.818" transform="translate(-223.012 -123.14)" fill="#636363"/>
      </g>
    </g>
    <g id="Grupo_871896" data-name="Grupo 871896" transform="translate(1031.34 3632.18)">
      <g id="Grupo_871895" data-name="Grupo 871895" clip-path="url(#clip-path-32)">
        <path id="Trazado_195002" data-name="Trazado 195002" d="M51.762,47.137a3.953,3.953,0,0,0-1.011-1.591Q44.412,39.2,38.071,32.865a4.1,4.1,0,0,0-1.269-.879.944.944,0,0,1-.432-.273l-.017-.005.008-.013c-.058-.122.014-.277.2-.553A19.264,19.264,0,0,0,39.784,21.02,19.469,19.469,0,0,0,28.241,2.633a19.774,19.774,0,0,0-6.375-1.625,18.888,18.888,0,0,0-7.6.916A18.871,18.871,0,0,0,6.979,6.278,19.15,19.15,0,0,0,1.2,16.81,18.861,18.861,0,0,0,2.809,28.85a19.283,19.283,0,0,0,10.185,9.6,18.8,18.8,0,0,0,8.926,1.376,18.9,18.9,0,0,0,9.494-3.438c.082-.057.16-.121.242-.179.3-.208.453-.3.581-.242l.028-.02c0,.015.01.029.014.044a1.289,1.289,0,0,1,.3.437,4.952,4.952,0,0,0,.9,1.2q6.233,6.236,12.47,12.466a4.114,4.114,0,0,0,2.038,1.2,3.374,3.374,0,0,0,3.707-2.069c.066-.175.065-.412.34-.421v-1.3c-.246,0-.225-.215-.27-.356m-31.34-9.151A17.571,17.571,0,1,1,37.911,20.327,17.538,17.538,0,0,1,20.422,37.986M49.891,48.612a1.344,1.344,0,0,1-1.259.84A1.492,1.492,0,0,1,47.56,49Q41.082,42.518,34.6,36.04a1.393,1.393,0,0,1-.046-2.052,1.378,1.378,0,0,1,2.013.073q6.487,6.471,12.961,12.954a1.367,1.367,0,0,1,.36,1.6" transform="translate(-0.711 -0.788)" fill="#636363"/>
        <path id="Trazado_195003" data-name="Trazado 195003" d="M221.434,238.5a3.374,3.374,0,0,1-3.707,2.069,4.114,4.114,0,0,1-2.038-1.2q-6.24-6.228-12.47-12.466a4.952,4.952,0,0,1-.9-1.2,1.285,1.285,0,0,0-.3-.437,4.171,4.171,0,0,0,1.2,1.8q6.206,6.192,12.4,12.394c.165.165.335.327.515.475a3.393,3.393,0,0,0,5.466-1.585c.033-.1.018-.244.167-.28-.275.009-.274.247-.34.421" transform="translate(-170.454 -190.075)" fill="#636363"/>
        <path id="Trazado_195004" data-name="Trazado 195004" d="M30.945,35.421c-.082.057-.16.121-.242.178a18.9,18.9,0,0,1-9.494,3.438,18.8,18.8,0,0,1-8.926-1.376A19.284,19.284,0,0,1,2.1,28.063,18.862,18.862,0,0,1,.489,16.023,19.151,19.151,0,0,1,6.268,5.491a18.869,18.869,0,0,1,7.289-4.354,18.888,18.888,0,0,1,7.6-.916,19.773,19.773,0,0,1,6.374,1.625A19.427,19.427,0,0,1,39.073,20.233a19.263,19.263,0,0,1-3.225,10.122c-.184.277-.256.432-.2.553A19.293,19.293,0,0,0,38.882,16.06,18.949,18.949,0,0,0,30.544,3.373,19.585,19.585,0,0,0,4.405,31.962a18.96,18.96,0,0,0,11.258,6.856,19.309,19.309,0,0,0,15.863-3.64c-.128-.054-.284.034-.581.242" transform="translate(0 -0.001)" fill="#636363"/>
        <path id="Trazado_195005" data-name="Trazado 195005" d="M242.008,210.983q-5.915-5.881-11.8-11.793a4.228,4.228,0,0,0-2.014-1.283.947.947,0,0,0,.432.273,4.1,4.1,0,0,1,1.269.878q6.341,6.34,12.681,12.681a3.954,3.954,0,0,1,1.011,1.591c.045.141.024.357.27.356a6.009,6.009,0,0,0-1.85-2.7" transform="translate(-192.537 -166.982)" fill="#636363"/>
      </g>
    </g>
    <g id="Grupo_871898" data-name="Grupo 871898" transform="translate(862 3632.18)">
      <g id="Grupo_871897" data-name="Grupo 871897" clip-path="url(#clip-path-33)">
        <path id="Trazado_195006" data-name="Trazado 195006" d="M55.47,87.852c.463-.458.929-.913,1.378-1.385a.352.352,0,0,1,.525-.084,12.724,12.724,0,0,0,3.491,1.439c.272.066.349.2.34.47-.023.65-.009,1.3-.007,1.954,0,.792.279,1.064,1.086,1.067.757,0,1.514,0,2.271,0,.81,0,1.62.006,2.429,0,.667-.007.964-.3.971-.968.008-.686.019-1.374-.006-2.059a.383.383,0,0,1,.351-.458,13.1,13.1,0,0,0,3.488-1.448.326.326,0,0,1,.486.057c.487.508.987,1,1.491,1.5a.869.869,0,0,0,1.38.013q1.709-1.689,3.4-3.4a.882.882,0,0,0-.024-1.418c-.468-.478-.938-.954-1.421-1.417a.378.378,0,0,1-.092-.566A12.411,12.411,0,0,0,78.425,77.7c.071-.3.208-.377.5-.366.668.025,1.338.013,2.007.007s.984-.3.988-.954q.015-2.429,0-4.858a.835.835,0,0,0-.942-.944c-.7-.009-1.409-.016-2.112,0a.359.359,0,0,1-.429-.322A12.709,12.709,0,0,0,77,66.778c-.158-.266-.084-.388.1-.564.482-.464.953-.939,1.42-1.418a.881.881,0,0,0,.015-1.417q-1.672-1.688-3.361-3.36a.9.9,0,0,0-1.46.025c-.477.469-.956.936-1.416,1.421a.351.351,0,0,1-.525.077,12.985,12.985,0,0,0-3.49-1.442c-.269-.067-.346-.194-.337-.468.023-.668.011-1.338.006-2.007-.005-.7-.288-1.009-.983-1.014q-2.4-.016-4.806,0c-.668,0-.962.313-.969.975-.007.686-.018,1.374.006,2.059a.386.386,0,0,1-.348.464,12.609,12.609,0,0,0-3.445,1.412c-.242.142-.376.142-.57-.065-.47-.5-.961-.981-1.453-1.459a.866.866,0,0,0-1.38-.014q-1.708,1.69-3.4,3.4a.879.879,0,0,0,.022,1.417q.721.736,1.457,1.456c.156.152.217.261.084.484a12.669,12.669,0,0,0-1.464,3.536c-.061.248-.176.325-.431.318-.686-.019-1.373-.011-2.059-.005s-.988.289-.992.947q-.015,2.429,0,4.858c0,.655.317.945.99.951s1.339.019,2.006-.007c.3-.012.432.072.5.368a12.425,12.425,0,0,0,1.419,3.442c.155.263.094.386-.092.565-.482.463-.952.94-1.42,1.418a.889.889,0,0,0,.014,1.454q1.637,1.649,3.285,3.287a.929.929,0,0,0,1.538-.019m-2.948-3.77c-.222-.211-.147-.317.028-.486.457-.439.9-.888,1.345-1.342a.853.853,0,0,0,.124-1.27,13.072,13.072,0,0,1-1.861-4.5c-.136-.649-.395-.83-1.074-.833-.616,0-1.232-.011-1.848,0-.249.006-.339-.061-.328-.321.02-.474.006-.95.006-1.513.051-.448-.239-1.167.108-1.469.3-.264,1-.073,1.53-.081.211,0,.422,0,.634,0a.848.848,0,0,0,.945-.728,13.066,13.066,0,0,1,1.945-4.685.837.837,0,0,0-.139-1.147c-.471-.474-.935-.957-1.423-1.413-.2-.182-.169-.279.007-.449.657-.637,1.309-1.28,1.939-1.943.212-.224.319-.145.486.03.426.445.864.877,1.3,1.31a.869.869,0,0,0,1.307.159,13.181,13.181,0,0,1,4.5-1.86c.647-.137.83-.4.833-1.075,0-.616.012-1.232,0-1.848-.007-.252.066-.33.323-.326q1.372.022,2.745,0c.256,0,.329.074.323.326-.017.633-.009,1.267,0,1.9,0,.613.19.878.781,1a13.01,13.01,0,0,1,4.587,1.91.875.875,0,0,0,1.229-.152c.444-.452.9-.891,1.341-1.347.167-.173.272-.255.485-.031.63.663,1.282,1.306,1.939,1.943.175.169.2.266.008.449-.464.431-.9.888-1.348,1.339a.867.867,0,0,0-.157,1.307,12.838,12.838,0,0,1,1.843,4.446c.141.687.4.878,1.092.881.616,0,1.232.012,1.848,0,.251-.007.331.065.327.322q-.022,1.372,0,2.745c0,.255-.072.331-.325.324-.615-.017-1.232-.007-1.848,0-.681,0-.941.183-1.077.828a12.921,12.921,0,0,1-1.89,4.539.872.872,0,0,0,.148,1.228c.466.455.911.931,1.386,1.376.194.181.171.277-.005.449-.657.637-1.309,1.28-1.939,1.943-.211.221-.317.148-.485-.028-.439-.457-.888-.9-1.343-1.345A.853.853,0,0,0,71.6,84.52a12.985,12.985,0,0,1-4.5,1.861c-.651.135-.831.393-.834,1.072,0,.616-.011,1.232,0,1.848.006.247-.058.334-.319.33q-1.372-.023-2.745,0c-.253,0-.334-.064-.327-.323.018-.633.009-1.267,0-1.9,0-.614-.191-.879-.779-1.007a13.24,13.24,0,0,1-4.588-1.908.872.872,0,0,0-1.229.148c-.455.466-.931.912-1.375,1.387-.181.193-.277.172-.449-.005-.637-.657-1.28-1.309-1.943-1.939" transform="translate(-40.554 -48.613)" fill="#636363"/>
        <path id="Trazado_195007" data-name="Trazado 195007" d="M5.639,69.888a.841.841,0,0,0-1.055.69c-.132.449-.249.9-.406,1.477-.1-.183-.148-.256-.185-.335a22.033,22.033,0,0,1,.24-20.149,21.445,21.445,0,0,1,8.293-8.846c.733-.443.93-.889.62-1.381s-.781-.492-1.519-.049a21.205,21.205,0,0,0-4.179,3.2Q-2.242,54.244.731,67.682a21.841,21.841,0,0,0,2,5.284c-.6-.154-1.123-.295-1.647-.417A.817.817,0,0,0,.041,73.1a.818.818,0,0,0,.6,1.065c1.165.328,2.333.647,3.507.944a.854.854,0,0,0,1.16-.683c.311-1.134.609-2.271.9-3.409a.846.846,0,0,0-.568-1.126" transform="translate(0 -35.189)" fill="#636363"/>
        <path id="Trazado_195008" data-name="Trazado 195008" d="M116.008,259.8a.856.856,0,0,0-1.2-.677q-1.681.437-3.359.889a.856.856,0,1,0,.431,1.642c.456-.114.907-.244,1.418-.383a1.717,1.717,0,0,1-.074.183,22.419,22.419,0,0,1-24.959,9.136,24.88,24.88,0,0,1-4.736-2.011.854.854,0,0,0-1.372.57c-.05.47.234.731.617.944A23.365,23.365,0,0,0,97.409,273a23.671,23.671,0,0,0,17.154-10.511c.081-.117.118-.281.317-.35.139.521.265,1.03.413,1.532a.847.847,0,1,0,1.623-.463c-.3-1.138-.6-2.275-.908-3.409" transform="translate(-70.557 -222.496)" fill="#636363"/>
        <path id="Trazado_195009" data-name="Trazado 195009" d="M161.812,2.827a10.742,10.742,0,0,1-1.756-.209c.41-.405.78-.754,1.13-1.122a.829.829,0,0,0,.069-1.223A.826.826,0,0,0,160,.31q-1.282,1.257-2.54,2.538a.837.837,0,0,0,.006,1.3q1.239,1.263,2.5,2.5a.852.852,0,0,0,1.261.1.842.842,0,0,0-.083-1.3c-.328-.333-.675-.648-1.115-1.067a18.235,18.235,0,0,1,3.7.472,22.109,22.109,0,0,1,16.381,14.574,21.165,21.165,0,0,1,1.222,7.139c.009.625.379.969.9.934.5-.033.783-.39.779-1a21.949,21.949,0,0,0-1.55-8.3c-3.637-8.826-10.175-13.985-19.649-15.384" transform="translate(-134.966 0)" fill="#636363"/>
        <path id="Trazado_195010" data-name="Trazado 195010" d="M113.6,132.339a9.295,9.295,0,1,0-9.27-9.319,9.313,9.313,0,0,0,9.27,9.319m.073-16.9a7.6,7.6,0,1,1-7.653,7.569,7.618,7.618,0,0,1,7.653-7.569" transform="translate(-89.598 -97.692)" fill="#636363"/>
      </g>
    </g>
    <g id="Grupo_871900" data-name="Grupo 871900" transform="translate(1201.613 3632.18)">
      <g id="Grupo_871899" data-name="Grupo 871899" clip-path="url(#clip-path-34)">
        <path id="Trazado_195011" data-name="Trazado 195011" d="M.344,132.406a2.346,2.346,0,0,0,2.22,1.427c.158.005.317,0,.475,0H51.024c.229,0,.458.006.686-.015a2.3,2.3,0,0,0,2.177-2.193,12.657,12.657,0,0,0,.005-1.583c-.029-.591-.258-.817-.86-.839-.756-.027-1.513-.006-2.27-.009-1.03,0-1.083-.052-1.083-1.062q0-5.015,0-10.03,0-8.816,0-17.632a3.2,3.2,0,0,0-1.933-3.179,3.469,3.469,0,0,0-1.438-.3q-4.778-.014-9.555,0a1.646,1.646,0,0,0-.42.038.609.609,0,0,0-.54.669c.029.366.274.506.607.536.211.019.422.014.633.014h8.816a4.942,4.942,0,0,1,.895.049,1.987,1.987,0,0,1,1.668,1.852c.016.211.011.422.011.633q0,13.62,0,27.24c0,1.155-.019,1.173-1.183,1.174-.387,0-.774.011-1.161-.005-.587-.025-.669-.119-.641-.7a6.624,6.624,0,0,0-4.381-6.554,6.5,6.5,0,0,0-3.019-.3,1,1,0,0,1-1.043-.434,4.833,4.833,0,0,0-5.276-2.012c-.589.127-.6.1-.8-.518a3.982,3.982,0,0,0-5.015-2.853,3.916,3.916,0,0,0-2.729,2.773c-.225.715-.227.719-.95.574a4.743,4.743,0,0,0-5.03,1.891,1.328,1.328,0,0,1-1.345.564,6.539,6.539,0,0,0-7.213,6.9c.023.53-.058.642-.566.666-.6.028-1.2.013-1.794,0a.551.551,0,0,1-.621-.615c0-.158-.006-.317-.006-.475q0-13.726,0-27.452c0-.106,0-.211,0-.317a2,2,0,0,1,2.018-2.07c.7-.038,1.407-.011,2.111-.012q3.669,0,7.338,0a4.081,4.081,0,0,0,.632-.025.553.553,0,0,0,.533-.553.591.591,0,0,0-.468-.621,2.113,2.113,0,0,0-.681-.06c-3.044,0-6.088-.006-9.133,0A3.3,3.3,0,0,0,4.387,100.6q0,13.7,0,27.4c0,1.193,0,1.2-1.208,1.2-.229,0-.458,0-.686,0A4.47,4.47,0,0,0,0,129.563v2.429c.258.018.268.251.344.413m1.232-1.58c.043-.3.233-.2.38-.205,1.637-.006,3.273,0,4.91,0q2.4,0,4.8,0a.821.821,0,0,0,.849-.5.74.74,0,0,0-.187-.869.72.72,0,0,0-.522-.214c-.246,0-.493,0-.739,0-1.056,0-1.056,0-1.024-1.055a5.133,5.133,0,0,1,6.53-4.779c.828.236,1.035.138,1.382-.652a3.389,3.389,0,0,1,5.161-1.41c.35.252.69.454,1.1.194.434-.272.407-.667.3-1.117a2.515,2.515,0,0,1,1.036-2.681,2.609,2.609,0,0,1,2.881-.047,2.549,2.549,0,0,1,1.128,2.646c-.016.086-.043.17-.066.255a.8.8,0,0,0,1.288.857,3.413,3.413,0,0,1,5.3,1.275c.381.826.557.918,1.417.674a5.141,5.141,0,0,1,6.511,5.177c-.023.458-.094.683-.677.681q-13.859-.039-27.718-.018c-.158,0-.317-.008-.475,0a.785.785,0,0,0-.088,1.559,3.167,3.167,0,0,0,.632.021q18,0,36.007.017c.248,0,.716-.3.775.26.1.919-.165,1.408-.766,1.506a3.6,3.6,0,0,1-.58.016H2.925c-1.121,0-1.507-.472-1.349-1.589" transform="translate(0 -83.3)" fill="#636363"/>
        <path id="Trazado_195012" data-name="Trazado 195012" d="M3.051,133.134H51.042c.211,0,.423.005.633,0a2.489,2.489,0,0,0,2.386-2.422c.015-.545.011-1.091,0-1.637a.8.8,0,0,0-.911-.9c-.616-.007-1.232,0-1.848,0-.472,0-1.09.155-1.374-.082s-.09-.89-.09-1.358q-.008-13.516,0-27.032a3.387,3.387,0,0,0-3.694-3.711q-4.725,0-9.45,0a1.491,1.491,0,0,0-.674.09.74.74,0,0,0-.444.817.712.712,0,0,0,.643.662,3.325,3.325,0,0,0,.527.014h9.239c1.665,0,2.269.6,2.27,2.242q0,13.886,0,27.771a2,2,0,0,0,0,.264c.033.251-.063.335-.32.329-.668-.016-1.338-.023-2.006,0-.338.013-.385-.076-.354-.412a6.71,6.71,0,0,0-7.757-7.12.52.52,0,0,1-.634-.276,4.838,4.838,0,0,0-3.387-2.288,5.1,5.1,0,0,0-2.588.232,4.214,4.214,0,0,0-4.083-3.679,4.124,4.124,0,0,0-4.193,3.421c-.082.342-.232.214-.4.171a4.918,4.918,0,0,0-5.671,2.164.5.5,0,0,1-.593.26A6.7,6.7,0,0,0,8.5,127.839c.022.262-.014.339-.281.332-.633-.016-1.269-.033-1.9,0-.418.025-.514-.106-.514-.517q.019-14.018.01-28.035a1.817,1.817,0,0,1,2.082-2.058q4.725,0,9.45,0a3.565,3.565,0,0,0,.474-.011.713.713,0,0,0,.672-.69.736.736,0,0,0-.518-.82,1.684,1.684,0,0,0-.626-.062q-4.725,0-9.45,0a3.379,3.379,0,0,0-3.669,3.682q0,7.972,0,15.945c0,3.995-.011,7.99.014,11.985,0,.5-.15.6-.608.583-.861-.035-1.725.013-2.586-.019A1.063,1.063,0,0,0,0,128.7a4.47,4.47,0,0,1,2.491-.365c.229,0,.458,0,.686,0,1.2,0,1.208,0,1.208-1.2q0-13.7,0-27.4A3.3,3.3,0,0,1,8,96.127c3.044-.007,6.088,0,9.133,0a2.11,2.11,0,0,1,.681.06.591.591,0,0,1,.468.621.553.553,0,0,1-.533.553,4.044,4.044,0,0,1-.632.025q-3.669,0-7.338,0c-.7,0-1.409-.026-2.111.012a2,2,0,0,0-2.018,2.07c0,.106,0,.211,0,.317q0,13.726,0,27.452c0,.158,0,.317.006.475a.551.551,0,0,0,.621.615c.6.009,1.2.024,1.794,0,.508-.024.589-.135.566-.666a6.539,6.539,0,0,1,7.213-6.9,1.328,1.328,0,0,0,1.346-.564,4.743,4.743,0,0,1,5.03-1.891c.723.145.725.141.95-.574a3.917,3.917,0,0,1,2.729-2.773,3.982,3.982,0,0,1,5.015,2.853c.194.622.209.644.8.518a4.833,4.833,0,0,1,5.276,2.012,1,1,0,0,0,1.043.434,6.5,6.5,0,0,1,3.019.3,6.625,6.625,0,0,1,4.381,6.554c-.028.579.054.674.641.7.387.016.774.005,1.161.005,1.164,0,1.183-.019,1.183-1.173q0-13.62,0-27.241c0-.211.005-.423-.01-.633a1.988,1.988,0,0,0-1.668-1.852,4.917,4.917,0,0,0-.895-.049H37.031c-.211,0-.422.006-.633-.014-.333-.031-.579-.17-.607-.536a.608.608,0,0,1,.54-.669,1.641,1.641,0,0,1,.42-.038q4.777,0,9.555,0a3.469,3.469,0,0,1,1.438.3,3.2,3.2,0,0,1,1.933,3.179q.012,8.816,0,17.633,0,5.015,0,10.031c0,1.01.053,1.058,1.083,1.062.757,0,1.514-.018,2.27.009.6.022.831.248.86.839a12.659,12.659,0,0,1-.005,1.583,2.3,2.3,0,0,1-2.177,2.193c-.228.021-.457.015-.686.015H3.038c-.158,0-.317,0-.475,0a2.347,2.347,0,0,1-2.22-1.427c-.075-.162-.086-.4-.344-.414.675,1.6,1.291,2.006,3.051,2.006" transform="translate(0 -82.435)" fill="#636363"/>
        <path id="Trazado_195013" data-name="Trazado 195013" d="M131.273,18.389a20.407,20.407,0,0,0,.094-5.73A20.64,20.64,0,0,0,125.511.39c-.5-.515-.9-.523-1.394,0a20.86,20.86,0,0,0-5.781,17.942.938.938,0,0,1-.233.808c-1.127,1.327-2.229,2.675-3.351,4.007a3.317,3.317,0,0,0-.872,1.99c-.043.913-.049,1.83-.016,2.743a.784.784,0,0,0,1.208.684c.143-.067.276-.152.414-.23q2.408-1.356,4.818-2.709c.122-.068.227-.248.414-.13a2.376,2.376,0,0,1,.547,1.453c-.184.732-.374,1.462-.552,2.2-.2.842.106,1.238.978,1.244,1.038.007,2.076,0,3.114,0,1.073,0,2.147.011,3.22,0,.754-.01,1.06-.4.9-1.13a15.484,15.484,0,0,0-.463-1.836,1.661,1.661,0,0,1,.227-1.616c.222-.333.337-.368.675-.172,1.655.959,3.326,1.889,4.994,2.826.835.469,1.4.133,1.409-.833,0-.616-.014-1.232,0-1.847a3.875,3.875,0,0,0-1-2.749c-1.114-1.292-2.186-2.62-3.288-3.922a.809.809,0,0,1-.212-.714M121.726,6.435a19.215,19.215,0,0,1,2.764-4.148c.234-.272.366-.325.628-.019a19.683,19.683,0,0,1,2.934,4.5h-6.393c-.095-.137.019-.229.068-.329m-2,17.684-4.246,2.4a3.055,3.055,0,0,1,.836-2.8c.862-.917,1.627-1.925,2.489-2.96a24.367,24.367,0,0,0,1.095,3.049c.092.2-.055.241-.174.309M126.82,28.8c-.685.007-1.37,0-2.055,0-.632,0-1.265-.013-1.9.006-.32.009-.435-.041-.345-.407.346-1.4.333-1.405,1.8-1.405.685,0,1.37,0,2.055,0,.135,0,.322-.048.37.12.144.5.28,1.014.376,1.529.041.222-.188.152-.308.153m.534-3.8a.717.717,0,0,1-.741.424q-1.82-.036-3.64,0a.682.682,0,0,1-.7-.41A19.636,19.636,0,0,1,119.7,14.306a20.592,20.592,0,0,1,1-5.421c.124-.388.277-.556.725-.538,1.124.043,2.251.014,3.376.014,1.178,0,2.357.01,3.535-.007a.446.446,0,0,1,.518.368A19.7,19.7,0,0,1,127.353,25m6.827,1.442c-.169.056-.272-.062-.387-.126-1.268-.71-2.529-1.431-3.8-2.129-.264-.145-.342-.269-.2-.559a18.406,18.406,0,0,0,1.02-2.9c1.084,1.324,2.127,2.549,3.11,3.82.422.545.25,1.246.265,1.889" transform="translate(-97.777 0)" fill="#636363"/>
        <path id="Trazado_195014" data-name="Trazado 195014" d="M171.311,78.034a3.328,3.328,0,1,0-.016,6.656,3.328,3.328,0,0,0,.016-6.656m-.008,5.073a1.73,1.73,0,0,1-1.758-1.724,1.745,1.745,0,1,1,3.489-.026,1.731,1.731,0,0,1-1.732,1.75" transform="translate(-144.258 -67.022)" fill="#636363"/>
      </g>
    </g>
  </g>
</svg>
