<svg id="Grupo_873023" data-name="Grupo 873023" xmlns="http://www.w3.org/2000/svg" xmlns:xlink="http://www.w3.org/1999/xlink" width="58.749" height="77.868" viewBox="0 0 58.749 77.868">
  <defs>
    <clipPath id="clip-path">
      <rect id="Rectángulo_66779" data-name="Rectángulo 66779" width="58.749" height="77.868" fill="none"/>
    </clipPath>
  </defs>
  <g id="Grupo_873022" data-name="Grupo 873022" clip-path="url(#clip-path)">
    <path id="Trazado_199609" data-name="Trazado 199609" d="M6.8,106.68a14.765,14.765,0,0,0-2-.987,3.3,3.3,0,0,0-1.492-.442c-.017-.017-.035-.031-.052-.048-1.479-1.48-1.459-3.614-1.5-5.556-.15-7.726-.31-15.455-.264-23.183.019-3.3.017-7.339,1.792-10.257a7.87,7.87,0,0,1,4.411-3.147c1.763-.639,3.4-1.542,5.132-2.258,3.641-1.5,7.638-2.089,11.473-2.919l13.056-2.828a4.832,4.832,0,0,1,3.234.466c7.609.865,6.387,11.151,6.363,16.816a131.073,131.073,0,0,1-.6,15.386c2.348,4.668-1.3,9.719-6.047,10.913-.167.042-.337.077-.505.113a3.448,3.448,0,0,1-2.007,1.067l-11.631,2.008c-.074.013-.146.018-.22.028a24.949,24.949,0,0,1-2.755,1.886c-.288.146-.582.282-.877.417a3.253,3.253,0,0,0-1.955-.077c-3.954,1-8,.435-11.776,2.255a3.584,3.584,0,0,0-.64.39c-.384,0-.767-.011-1.145-.043M22.651,91.72c-.062-.092-.124-.119-.191-.015-.018.029.065.029.191.015m-2.08-13.592a4.532,4.532,0,0,0,1.42,3.216c.168.144.346.3.534.432a13.653,13.653,0,0,1,.825,2.78,23.465,23.465,0,0,1,.394,4.11c0,.686.1,1.893.008,2.858a12.117,12.117,0,0,0,3.175-.916l.089-4.99a7.271,7.271,0,0,1,.015-.8,4.246,4.246,0,0,1,2.038-3.426,11.584,11.584,0,0,0,.224-1.369c.036-.088.071-.177.106-.26a5.221,5.221,0,0,0,.23-.575,2.113,2.113,0,0,0,.048-.223,9.614,9.614,0,0,0,.14-1.089,7.1,7.1,0,0,0-.142-1.394,4.415,4.415,0,0,0-.143-.633,11.085,11.085,0,0,0-1.044-2.331,3.2,3.2,0,0,0-.472-.611c-.051-.239-.1-.478-.129-.718-.233.033-.466.064-.7.1a4.1,4.1,0,0,0-.689-.3,3.358,3.358,0,0,0-2.564.335,2.512,2.512,0,0,0-.674.528l-.061.01c0,.024-.007.048-.009.072-.05.06-.1.12-.144.185a2.587,2.587,0,0,0-.425.365,7.96,7.96,0,0,0-1.407,1.988,5.536,5.536,0,0,0-.643,2.658" transform="translate(10.968 -29.122)" fill="#29abe2"/>
    <path id="Trazado_199610" data-name="Trazado 199610" d="M20.122,68.9A25.445,25.445,0,0,1,21.5,60.022c1.079-2.683,3.108-4,5.82-4.719C34.095,53.512,40.923,51.9,47.724,50.2c4.9-1.224,9.892-2.3,14.789-1.632a3.755,3.755,0,0,0,.458.315,31.335,31.335,0,0,0,5.884,2.636,2.241,2.241,0,0,1-.385,1.367,3.46,3.46,0,0,0-1.4.043c-2.76.631-5.48,1.353-8.279,1.8a38.961,38.961,0,0,0-8.033,1.827,3.713,3.713,0,0,0-1.723,1.286c-.692.063-1.386.118-2.066.213-2.669.373-6.285.873-8.241,2.972-.581.118-1.161.24-1.742.354a8.831,8.831,0,0,0-.664.9,21.892,21.892,0,0,0-1.845,3.727q-.159,6.633-.3,13.266c-.127,6.434-.092,12.888,1.283,19.2a2.162,2.162,0,0,1-3.132,2.408c-3.01-1.4-6.1-2.268-9.05-3.785-2.888-1.483-3.056-4.276-3.071-7.246-.037-6.977-.233-13.975-.086-20.951" transform="translate(-19.542 -25.629)" fill="#49bfe8"/>
    <path id="Trazado_199611" data-name="Trazado 199611" d="M114.811,86.17q.026,11.194.052,22.389c.006,2.744-4.259,2.748-4.265,0q-.026-11.194-.052-22.389c-.006-2.744,4.258-2.748,4.265,0" transform="translate(-108.075 -44.574)" fill="#29abe2"/>
    <path id="Trazado_199612" data-name="Trazado 199612" d="M105.595,80.341a57.984,57.984,0,0,1-8.223-3.1c-2.487-1.153-.324-4.83,2.153-3.682a50.619,50.619,0,0,0,7.2,2.673c2.63.764,1.512,4.88-1.134,4.112" transform="translate(-94.73 -38.865)" fill="#79dcf7"/>
    <path id="Trazado_199613" data-name="Trazado 199613" d="M7.754,103.516q12.659-2.824,25.188-6.173.326-14.658.164-29.322c-.031-2.745,4.233-2.747,4.265,0q.178,15.567-.2,31.13a2.231,2.231,0,0,1-.153.773,1.725,1.725,0,0,1-1.256,1.474Q22.4,105,8.9,108.014c-2.377.53-3.531-3.965-1.145-4.5" transform="translate(18.294 -34.957)" fill="#2691bf"/>
    <path id="Trazado_199614" data-name="Trazado 199614" d="M40.116,65.994Q24.2,69.285,8.656,74.05c-2.63.806-3.754-3.309-1.134-4.112q15.536-4.762,31.46-8.056c2.678-.554,3.824,3.556,1.134,4.112" transform="translate(14.264 -32.767)" fill="#49bfe8"/>
    <path id="Trazado_199615" data-name="Trazado 199615" d="M34.287,20.89q.211-2.86.542-5.711a12.029,12.029,0,0,1,.985-4.583c1.5-2.616,5.382-3.9,8.073-4.778a30.423,30.423,0,0,1,8.1-1.442,7.787,7.787,0,0,1,2.064-.035h.011c.188.02.375.043.567.075a1.723,1.723,0,0,1,1.469,1.4,9.771,9.771,0,0,1,3.634,5.263,36.847,36.847,0,0,1,.824,7.714q.133,2.3.266,4.609c-.168,1.324-.265,2.762-.436,3.736-.067.377-.143.755-.246,1.124a2.8,2.8,0,0,1-.259.69c-.008.016-.018.031-.026.046-.111,0-.251.029-.136.024a3.282,3.282,0,0,0-1.971.716,2.068,2.068,0,0,1-.92-1.66c-.233-4.058-.445-8.119-.7-12.176-.16-2.538-.934-8.375-4.912-6.777a1.694,1.694,0,0,1-1.763-.237,25.7,25.7,0,0,0-3.713.813,24.79,24.79,0,0,0-4.019,1.586c-1.53.769-2.278,1.286-2.516,3-1.818,2.291-2.09,5.684-2.11,8.475-.024,3.209.5,6.384.536,9.587a3.459,3.459,0,0,0,.222,1.2c-1.013,1.454-3.9,1.056-3.916-1.2-.033-3.826.073-7.649.353-11.465" transform="translate(-18.021 -2.274)" fill="#999"/>
    <path id="Trazado_199616" data-name="Trazado 199616" d="M57.044,10.772A3.257,3.257,0,0,0,58.112,9.6c1.727-3.1,3.446-6.239,7.077-7.3A59.443,59.443,0,0,1,75.9.428a1.817,1.817,0,0,1-1.349,2.685,33.913,33.913,0,0,0-8.291,2.369,12.078,12.078,0,0,0-3.366,1.9c-1.076,1-1.285,2.449-1.527,3.834a92.785,92.785,0,0,0-1.2,18.459c.074,2.746-4.19,2.744-4.265,0a100.922,100.922,0,0,1,.329-11.614c.208-2.35.369-4.877.805-7.284" transform="translate(-43.605 -0.227)" fill="#b3b3b3"/>
    <path id="Trazado_199617" data-name="Trazado 199617" d="M43.507,12.533a3.107,3.107,0,0,0,1.546.529,3.1,3.1,0,0,0,1.17.4c2.582,5.373,1.731,11.917,1.727,17.708a2,2,0,0,1-2,2.049A3.5,3.5,0,0,0,44.8,32.2c-.005-.026,0-.052-.01-.078a2.471,2.471,0,0,0-.395-1.238c-.085-.117-.161-.238-.235-.361.012-.055.027-.108.038-.166.8-4.473,1.463-9.927-.127-14.316A3.212,3.212,0,0,0,42.5,13.533a2.45,2.45,0,0,1,1.012-1" transform="translate(-9.313 -6.642)" fill="#b3b3b3"/>
    <path id="Trazado_199618" data-name="Trazado 199618" d="M38.709,97.95l1-2.657a9.367,9.367,0,0,1,.33-1.376,4.372,4.372,0,0,1,3.346-3.107,2.012,2.012,0,0,1,2.068-.577,3.936,3.936,0,0,1,1.962,1.353,4.07,4.07,0,0,1,.833,2.26,1.677,1.677,0,0,1-.131.73,5.034,5.034,0,0,1-.181,2.229,8.75,8.75,0,0,1-1.463,4.253c.3,1.819-.21,3.968-.371,5.787-.24,2.712-4.507,2.738-4.264,0a34.811,34.811,0,0,0,.374-4.232c-.036-.963.444-.023-.182-.846-.293-.385-.8-.6-1.115-1-.025-.032-.044-.067-.067-.1a1.852,1.852,0,0,1-.646-.091,2.157,2.157,0,0,1-1.489-2.623" transform="translate(-7.644 -47.77)" fill="gray"/>
    <path id="Trazado_199619" data-name="Trazado 199619" d="M51.007,91.87c-2.468,2.363-4.1,5.428-1.665,8.425,1.708,2.1,1.131,5.435,1.215,8.025.053,1.647-2.506,1.645-2.558,0-.076-2.356.236-4.882-1.1-6.89A7.206,7.206,0,0,1,45.53,97.9c-.271-3.118,1.509-5.774,3.667-7.839,1.19-1.139,3,.668,1.809,1.809" transform="translate(-14.036 -47.536)" fill="#666"/>
    <path id="Trazado_199620" data-name="Trazado 199620" d="M44.311,63.212a273.829,273.829,0,0,0-31.267,7.822c-1.575.494-2.249-1.975-.68-2.467a273.831,273.831,0,0,1,31.267-7.822c1.609-.3,2.3,2.162.68,2.467" transform="translate(8.123 -32.178)" fill="#79dcf7"/>
    <path id="Trazado_199621" data-name="Trazado 199621" d="M83.189,80.179c-2.1,1.06-2.04,3.845-2.109,5.888-.095,2.814-.094,5.631-.075,8.447.039,5.632.165,11.262-.03,16.893-.058,1.642-2.617,1.649-2.559,0,.234-6.757,0-13.514.023-20.272.015-3.993-.932-10.952,3.46-13.166,1.467-.74,2.763,1.467,1.291,2.209" transform="translate(-61.922 -41.241)" fill="#79dcf7"/>
    <path id="Trazado_199622" data-name="Trazado 199622" d="M90.03,15.49a9.874,9.874,0,0,0-2.266,6.854.64.64,0,0,1-1.279,0,11.232,11.232,0,0,1,2.641-7.759c.544-.62,1.446.288.9.9" transform="translate(-72.099 -7.619)" fill="#d9dbdb"/>
    <path id="Trazado_199623" data-name="Trazado 199623" d="M37.865,5.842a6.015,6.015,0,0,1,5.571,2.189c1.307,1.737,1.587,4.689,1.6,6.8a.64.64,0,0,1-1.279,0,13.946,13.946,0,0,0-.98-5.438,4.671,4.671,0,0,0-4.916-2.267c-.815.1-.808-1.182,0-1.279" transform="translate(-3.802 -3.07)" fill="#bfbfbf"/>
    <path id="Trazado_199624" data-name="Trazado 199624" d="M43.97,96.628c.128,2.238.018,4.608-2.009,5.983-.683.463-1.324-.644-.646-1.1,1.6-1.083,1.473-3.177,1.376-4.879-.047-.823,1.233-.82,1.279,0" transform="translate(-4.541 -50.882)" fill="#b2b2b2"/>
    <path id="Trazado_199625" data-name="Trazado 199625" d="M56.368,58.268c3.76-1.074,7.5-2.041,11.33-2.887,2.006-.442,2.863,2.64.85,3.084-4.493.991-8.848,2.138-13.268,3.443a1.467,1.467,0,0,1-1.076-.067,3.256,3.256,0,0,0,2.164-3.574" transform="translate(-36.426 -29.326)" fill="#29abe2"/>
    <path id="Trazado_199626" data-name="Trazado 199626" d="M32.265,53.812a1.6,1.6,0,0,1,0-3.2,1.6,1.6,0,0,1,0,3.2" transform="translate(10.499 -26.823)" fill="#2691bf"/>
    <path id="Trazado_199627" data-name="Trazado 199627" d="M50.411,57.441a1.6,1.6,0,0,1,0-3.2,1.6,1.6,0,0,1,0,3.2" transform="translate(-16.176 -28.746)" fill="#29abe2"/>
    <path id="Trazado_199628" data-name="Trazado 199628" d="M41.923,89.643a.629.629,0,0,1,.193-.066.644.644,0,0,1,.2-.026c4.019-.51,5.781,3.65,5.022,7.146a7.868,7.868,0,0,1-1.526,3.321c-.612.728-.671.486-.731,1.39-.092,1.4.117,2.82.01,4.221-.114,1.479-.86,3.622-2.368,4.249-1.322.55-2.31-.3-2.748-1.52a12.865,12.865,0,0,1-.329-4.21,8.76,8.76,0,0,0-.014-2.22c-.173-.544-.058,0-.118-.059-.328-.335-.742-.542-1.061-.908-3.1-3.543-.738-9.894,3.467-11.318M40.595,100.98a.635.635,0,0,1,.317.552c.01,1.538-.037,3.087.03,4.624a4.235,4.235,0,0,0,.14,1.409c.769,1.838,2.045.5,2.486-.786a7.066,7.066,0,0,0,.257-2.4c-.008-1.288-.336-3.067.163-4.257.258-.615,1.057-1.144,1.408-1.79a7.138,7.138,0,0,0,.867-3.448c-.023-2.193-1.307-4.477-3.806-4.069-3.858,1.152-6.063,8.07-1.861,10.169" transform="translate(-6.175 -47.435)"/>
    <path id="Trazado_199629" data-name="Trazado 199629" d="M0,66.31Q0,52.969,0,39.628a.618.618,0,0,1,.084-.319.271.271,0,0,1,0-.028c-.114-4.256,1.761-8.232,6.041-9.531l.011,0a.7.7,0,0,1,.145-.049q3.141-.683,6.273-1.406c0-.122.006-.243,0-.359-.024-3.692-.126-7.393-.069-11.085.039-5.289,1.762-10.892,6.565-13.76C22.213,1.2,26.276.7,29.839.114c2.5-.412,4.553.368,6.917,1.117a.709.709,0,0,1,.123.053,6.563,6.563,0,0,1,.712.275c3.182,1.468,4.652,4.979,4.965,8.287.25,2.64.112,5.345.125,8q.011,2.31.019,4.62c0,.22.009.445.017.672,3.452.742,6.822,2.018,10.291,2.86a5.635,5.635,0,0,1,1.569.343c.188.037.374.081.563.115a.514.514,0,0,1,.447.4,5.672,5.672,0,0,1,1.37,1.3c1.5,1.964,1.585,4.345,1.6,6.7q.061,9.373.121,18.747c.036,5.524.875,12.069-4.216,15.819a12.776,12.776,0,0,1-5.009,1.8l-8.458,1.953L22.765,77.379c-1.823.421-3.606.868-5.395-.04-.126-.064-.243-.135-.361-.206q-6.187-1.77-12.226-4a6.353,6.353,0,0,1-4.7-6.509A.622.622,0,0,1,0,66.31M29.957,1.391c-3.265.542-6.926,1-9.886,2.59-4.665,2.508-6.269,7.913-6.305,12.869-.047,3.014.036,6.036.055,9.051.008,1.234-.342,2.974.081,4.164.213.6.971.924,1.786,1.156q-.037-.159-.063-.329a37.116,37.116,0,0,1-.132-6.818c.025-1.075.05-2.146.045-3.2-.005-.63-.011-1.259-.01-1.885a24.544,24.544,0,0,1,.821-7.405c.126-.346.264-.683.407-1.014A13.436,13.436,0,0,1,17.7,8.621,12.637,12.637,0,0,1,24.3,3.044c.2-.075.406-.142.61-.21l.048-.018.032-.01c.2-.066.4-.129.608-.189a46.686,46.686,0,0,1,5.942-1.324,7.774,7.774,0,0,0-1.581.1M40.366,6.273a6.782,6.782,0,0,0-4-3.819,11.152,11.152,0,0,0-5.12.222A45.568,45.568,0,0,0,25.428,4.01a11.41,11.41,0,0,0-5.6,3.781c-.058.074-.117.147-.173.222-.107.141-.209.288-.312.436A14.835,14.835,0,0,0,18.1,10.669a20.658,20.658,0,0,0-1.294,8.464q.02,3.661.047,7.321v0h0q.006.813.01,1.626c0,.22-.02.485-.043.769.006.29.021.578.054.859.047.409.156,1.864.81,2,1.121.237,1.46-1.341,1.553-2.029.329-2.425-.033-5.179-.049-7.627-.024-3.738-.69-8.076,1.449-11.388,2-3.1,5.522-3.523,8.851-4.3,2.785-.651,5.962-1.7,8.094.869C39.9,10.026,39,14.728,39.026,18.05h0l.039,6.125c0,.109,0,.22-.007.332,0,.025.005.051.009.076l.006.817a1.784,1.784,0,0,0,.526,1.112c.017.011.036.021.054.032.231.113.509,0,.835-.339.925-.4.872-1.171.94-2.064.105-1.376-.014-2.82-.019-4.2-.018-4.3.774-9.641-1.044-13.669M34.724,22.864c.008,0,.016,0,.024,0,0-.018,0-.038,0-.055-.024-3.682-.075-7.366-.042-11.048-.013-1.835-.187-3.732-1.451-4.942a28.728,28.728,0,0,0-5.05,1.176c-3.228.789-6.008,1.474-7.265,4.928-.928,2.55-.494,5.679-.477,8.335.01,1.616.165,3.378.213,5.115q7.036-1.706,14.047-3.5m1.291-2.1c.008,1.238-.344,2.985.081,4.177.213.6.977.926,1.8,1.16a4.71,4.71,0,0,1-.088-.651c0-.016-.007-.031-.008-.048a79.528,79.528,0,0,1-.053-8.167c0-.595.032-1.272.069-1.988-.008-1.212-.03-2.423-.082-3.63a7.188,7.188,0,0,0-.795-3.1c-.052-.084-.1-.168-.163-.247a4.339,4.339,0,0,0-1.821-1.3,9.475,9.475,0,0,1,1.036,4.782c-.027,3,.009,6,.029,9.006M21.959,76.253l15.64-3.61c4.538-1.048,9.146-1.941,13.645-3.15,6.316-1.7,6.2-8.353,6.169-13.605q-.059-9.016-.117-18.033c-.021-3.327.23-8.718-2.812-10.229-.612-.116-1.223-.251-1.83-.4a6.915,6.915,0,0,0-1.442.144c-10.167,2.058-20.25,4.675-30.357,7.009-6.9,1.926-5.936,10.126-5.9,15.654q.058,8.863.115,17.727a16.589,16.589,0,0,0,.477,5.509,4.6,4.6,0,0,0,2.4,2.8c.422.119.842.244,1.265.36a7.585,7.585,0,0,0,2.746-.176M4.6,71.731a.664.664,0,0,1,.162.038c.121.045.243.086.364.131.087.023.173.049.262.068a.609.609,0,0,1,.264.122q4.684,1.718,9.459,3.157A10.145,10.145,0,0,1,13.8,70.055c-.081-5.831-.076-11.665-.113-17.5-.033-5.2-1.083-11.74,2.23-16.173a8.564,8.564,0,0,1,4.593-3.244c9.732-2.247,19.45-4.574,29.2-6.746-2.322-.708-4.633-1.492-6.978-2.013a4.506,4.506,0,0,1-.306,1.626A2.511,2.511,0,0,1,39.7,27.75a.553.553,0,0,1-.421.03c-1.467-.465-3.806-.661-4.381-2.364a4.061,4.061,0,0,1-.175-1.234q-7.009,1.787-14.04,3.5a16.492,16.492,0,0,1-.216,2.6,2.906,2.906,0,0,1-2.94,2.584.553.553,0,0,1-.44.039c-1.467-.465-3.806-.66-4.381-2.364a3.618,3.618,0,0,1-.165-.934q-2.959.678-5.925,1.326c-.016,0-.031,0-.046.006a.733.733,0,0,1-.11.046c-3.739,1.134-5.2,4.627-5.1,8.3a.609.609,0,0,1-.082.33c0,.006,0,.01,0,.016q0,13.138,0,26.276a.522.522,0,0,1,.1.41A5.1,5.1,0,0,0,4.6,71.731" transform="translate(0 0)"/>
    <path id="Trazado_199630" data-name="Trazado 199630" d="M85.236,155.92a1.28,1.28,0,0,1,0-2.559,1.28,1.28,0,0,1,0,2.559" transform="translate(-67.206 -81.274)" fill="#79dcf7"/>
  </g>
</svg>
